<?xml version="1.0" standalone="no"?>
<!DOCTYPE svg PUBLIC "-//W3C//DTD SVG 20010904//EN"
 "http://www.w3.org/TR/2001/REC-SVG-20010904/DTD/svg10.dtd">
<svg version="1.0" xmlns="http://www.w3.org/2000/svg"
 width="1024.000000pt" height="1024.000000pt" viewBox="0 0 1024.000000 1024.000000"
 preserveAspectRatio="xMidYMid meet">

<g transform="translate(0.000000,1024.000000) scale(0.100000,-0.100000)"
fill="#000000" stroke="none">
<path d="M3125 8229 c-100 -13 -281 -62 -359 -98 -98 -44 -231 -135 -309 -210
-38 -36 -99 -111 -135 -165 -95 -144 -144 -279 -172 -474 -12 -83 -14 -3071
-2 -3073 46 -5 52 -4 57 12 9 28 -6 70 -29 79 l-21 9 22 0 c26 1 43 -26 43
-67 0 -35 -29 -65 -50 -52 -8 5 -18 10 -22 10 -12 0 -9 -1104 2 -1185 35 -239
132 -442 293 -612 121 -127 294 -242 447 -295 139 -49 108 -48 2232 -48 1984
0 1989 0 2091 21 218 45 368 122 549 282 60 53 170 182 138 162 -9 -6 -10 -3
-1 13 15 28 14 69 -1 75 -8 4 -7 6 4 6 20 1 27 -25 16 -59 -16 -45 17 -2 61
80 47 88 96 231 117 337 19 103 21 1838 2 1846 -10 4 -10 6 0 6 9 1 12 251 12
1214 0 1318 1 1288 -56 1462 -92 276 -285 489 -561 616 -97 44 -150 62 -283
92 l-95 21 -1960 2 c-1124 1 -1990 -2 -2030 -7z m285 -119 c0 -5 -7 -7 -15 -4
-8 4 -12 10 -9 15 6 11 24 2 24 -11z m987 -82 c-2 -18 -4 -4 -4 32 0 36 2 50
4 33 2 -18 2 -48 0 -65z m-627 73 c0 -5 -9 -7 -20 -4 -14 4 -20 0 -20 -11 0
-9 6 -16 13 -16 17 0 38 -36 31 -55 -8 -20 -60 -20 -68 1 -3 8 -2 13 3 10 12
-8 8 67 -4 76 -5 4 7 8 28 8 20 0 37 -4 37 -9z m811 -3 c0 -7 2 -23 3 -36 2
-13 -1 -25 -6 -28 -5 -3 -7 7 -6 23 1 16 -1 34 -6 41 -4 7 -2 12 3 12 6 0 11
-6 12 -12z m872 -24 c10 -62 -28 -101 -64 -68 -21 19 -24 40 -9 78 7 20 17 26
38 26 26 0 30 -4 35 -36z m976 -19 c-2 -49 -5 -55 -23 -54 -12 0 -15 3 -8 6 6
2 12 20 12 38 0 33 8 65 17 65 2 0 3 -25 2 -55z m246 0 c0 -30 -3 -55 -7 -55
-5 0 -8 25 -8 55 0 30 3 55 8 55 4 0 7 -25 7 -55z m419 48 c-31 -6 -39 -43
-11 -44 l22 -2 -21 -4 c-16 -3 -20 -9 -17 -24 4 -16 12 -20 29 -16 13 2 24 0
24 -4 0 -5 -15 -9 -33 -9 l-34 0 -2 55 -2 55 33 -1 c22 -1 26 -3 12 -6z
m-3099 -53 c0 -27 -3 -50 -7 -50 -5 0 -8 23 -8 50 0 28 3 50 8 50 4 0 7 -22 7
-50z m-1215 36 c0 -3 -4 -8 -10 -11 -5 -3 -10 -1 -10 4 0 6 5 11 10 11 6 0 10
-2 10 -4z m3858 -41 c-3 -24 -8 -48 -13 -52 -4 -5 -5 7 -1 26 3 18 6 42 6 52
0 11 3 19 6 19 3 0 4 -20 2 -45z m-2453 25 c3 -5 1 -10 -4 -10 -6 0 -11 5 -11
10 0 6 2 10 4 10 3 0 8 -4 11 -10z m429 -5 c-4 -8 -11 -15 -16 -15 -6 0 -5 6
2 15 7 8 14 15 16 15 2 0 1 -7 -2 -15z m1239 -20 c-19 -39 -37 -45 -53 -15 -7
14 -7 20 0 20 5 0 10 -7 10 -15 0 -24 14 -17 32 15 24 41 31 38 11 -5z m-2334
-11 c13 -30 14 -44 2 -44 -5 0 -12 14 -16 30 -4 17 -11 30 -16 30 -14 0 -11
-40 4 -40 6 0 4 -5 -6 -11 -25 -15 -28 -9 -16 34 11 41 29 41 48 1z m1503 1
c3 -25 0 -35 -10 -35 -9 0 -11 7 -7 19 3 11 2 22 -3 25 -13 8 -35 -20 -27 -34
3 -5 1 -10 -5 -10 -21 0 -5 44 20 57 14 7 26 13 26 13 1 0 4 -16 6 -35z m2508
31 c0 -2 -13 -6 -29 -8 -17 -2 -28 -1 -25 4 5 8 54 12 54 4z m-4300 -41 c-7
-9 -15 -13 -18 -10 -3 2 1 11 8 20 7 9 15 13 18 10 3 -2 -1 -11 -8 -20z m4260
-18 c0 -5 -4 -5 -10 -2 -5 3 -10 14 -10 23 0 15 2 15 10 2 5 -8 10 -19 10 -23z
m-4670 3 c0 -5 -5 -10 -11 -10 -5 0 -7 5 -4 10 3 6 8 10 11 10 2 0 4 -4 4 -10z
m3650 0 c0 -5 -5 -10 -11 -10 -5 0 -7 5 -4 10 3 6 8 10 11 10 2 0 4 -4 4 -10z
m-1663 -6 c-3 -3 -12 -4 -19 -1 -8 3 -5 6 6 6 11 1 17 -2 13 -5z m-1769 -117
c15 -12 16 -79 0 -95 -33 -33 -78 -2 -78 54 0 52 38 72 78 41z m1181 6 c0 -12
-2 -13 -6 -5 -11 28 -33 -10 -33 -59 0 -27 -3 -49 -7 -49 -13 0 -11 103 1 117
17 19 46 16 45 -4z m-1624 -12 c8 -25 3 -81 -7 -81 -5 0 -7 12 -6 28 1 15 -2
37 -6 50 -4 13 -3 22 3 22 5 0 12 -8 16 -19z m195 9 c0 -5 -5 -10 -11 -10 -5
0 -7 5 -4 10 3 6 8 10 11 10 2 0 4 -4 4 -10z m32 -62 c2 -32 -1 -48 -9 -48
-12 0 -16 95 -4 115 6 11 9 -1 13 -67z m988 62 c0 -4 -8 -7 -17 -6 -15 1 -18
-8 -18 -52 0 -35 -4 -52 -12 -52 -9 0 -13 17 -13 50 0 37 -4 50 -14 50 -8 0
-17 4 -20 9 -3 5 17 9 44 9 28 0 50 -4 50 -8z m588 -52 l-2 -63 -3 58 c-3 46
-7 58 -19 53 -7 -3 -14 -1 -14 4 0 6 9 10 20 10 18 0 20 -6 18 -62z m226 56
c10 -4 16 -18 16 -40 0 -32 -1 -33 -35 -30 -19 1 -35 -1 -35 -5 0 -15 28 -28
51 -22 18 4 21 3 13 -6 -6 -7 -24 -11 -40 -9 -26 3 -29 7 -32 41 -2 26 2 45
14 58 19 21 24 22 48 13z m175 -54 c-3 -75 -19 -80 -19 -6 0 34 -5 56 -12 59
-7 3 -3 6 10 6 22 1 23 -2 21 -59z m441 47 c0 -7 -12 -13 -27 -12 -25 0 -28
-4 -31 -34 -4 -35 13 -64 26 -46 4 6 16 12 26 13 17 3 18 2 7 -12 -8 -9 -24
-16 -37 -16 -45 0 -61 77 -22 104 27 19 58 21 58 3z m430 3 c0 -5 -7 -10 -16
-10 -12 0 -15 -7 -12 -29 3 -23 -1 -32 -19 -40 -18 -8 -23 -8 -23 3 0 8 7 16
15 20 8 3 15 15 15 27 0 17 -5 20 -25 17 -14 -3 -25 -2 -25 3 0 4 10 10 23 12
42 8 67 7 67 -3z m156 -44 c-1 -69 -16 -86 -16 -20 0 28 -5 55 -12 62 -9 9 -7
12 9 12 18 0 20 -6 19 -54z m1292 24 c-1 -17 -6 -29 -11 -27 -15 5 -15 57 0
57 7 0 11 -13 11 -30z m199 24 c-3 -3 -12 -4 -19 -1 -8 3 -5 6 6 6 11 1 17 -2
13 -5z m-3892 -14 c3 -5 1 -10 -4 -10 -6 0 -11 5 -11 10 0 6 2 10 4 10 3 0 8
-4 11 -10z m45 -29 c0 -22 3 -46 6 -55 5 -12 -1 -16 -24 -16 -36 0 -46 12 -38
46 5 19 11 24 26 19 23 -7 28 13 8 33 -9 9 -8 12 5 12 13 0 17 -9 17 -39z
m3404 33 c19 -7 21 -30 4 -40 -7 -4 -8 -3 -4 4 4 7 4 17 0 24 -5 8 -10 6 -15
-8 -7 -17 -8 -17 -8 4 -1 24 0 25 23 16z m201 -26 c-3 -64 -5 -78 -14 -78 -5
0 -10 25 -10 55 0 36 5 55 13 55 7 0 11 -13 11 -32z m186 9 c-10 -9 -11 -8 -5
6 3 10 9 15 12 12 3 -3 0 -11 -7 -18z m-4008 -19 c3 -18 1 -37 -3 -41 -4 -5
-9 10 -12 32 -4 49 7 55 15 9z m1744 26 c-3 -3 -12 -4 -19 -1 -8 3 -5 6 6 6
11 1 17 -2 13 -5z m24 -67 c-8 -8 -11 -1 -11 24 0 46 14 60 18 19 2 -18 -1
-37 -7 -43z m2700 43 c16 0 19 -7 17 -37 -1 -37 -1 -37 -5 -5 -3 23 -9 32 -23
32 -14 0 -18 -7 -16 -30 2 -24 -2 -30 -18 -29 -12 0 -15 3 -8 6 6 2 12 14 12
26 0 12 3 33 7 47 6 19 8 21 11 8 2 -10 12 -18 23 -18z m-1268 -10 c-3 -12 -8
-19 -11 -16 -5 6 5 36 12 36 2 0 2 -9 -1 -20z m-2493 6 c0 -3 -4 -8 -10 -11
-5 -3 -10 -1 -10 4 0 6 5 11 10 11 6 0 10 -2 10 -4z m45 -6 c-3 -5 -14 -10
-23 -9 -14 0 -13 2 3 9 27 11 27 11 20 0z m981 -6 c-3 -9 -6 -24 -6 -35 0 -10
-4 -19 -8 -19 -4 0 -6 16 -4 35 2 19 9 35 14 35 6 0 7 -7 4 -16z m2332 -10
c-4 -34 -31 -53 -55 -38 -22 14 -29 36 -9 28 9 -3 13 -10 10 -15 -3 -5 4 -9
16 -9 25 0 37 25 20 45 -10 12 -9 15 4 15 13 0 16 -7 14 -26z m-1058 12 c0 -3
-4 -8 -10 -11 -5 -3 -10 -1 -10 4 0 6 5 11 10 11 6 0 10 -2 10 -4z m182 -46
c9 0 9 3 -2 11 -12 9 -12 10 -1 7 26 -7 25 -30 0 -26 -17 2 -25 10 -26 28 -3
25 -3 25 7 3 5 -13 15 -23 22 -23z m448 15 c0 -18 -5 -25 -20 -25 -11 0 -20 4
-20 10 0 5 7 7 15 4 10 -4 15 0 15 15 0 12 2 21 5 21 3 0 5 -11 5 -25z m230
10 c0 -8 -4 -15 -10 -15 -5 0 -10 7 -10 15 0 8 5 15 10 15 6 0 10 -7 10 -15z
m-3920 -21 c0 -8 -5 -12 -10 -9 -6 4 -8 11 -5 16 9 14 15 11 15 -7z m-780 -10
c0 -2 -7 -4 -15 -4 -8 0 -15 4 -15 10 0 5 7 7 15 4 8 -4 15 -8 15 -10z m3235
6 c-3 -5 -14 -10 -23 -9 -14 0 -13 2 3 9 27 11 27 11 20 0z m-3047 -7 c-10 -2
-26 -2 -35 0 -10 3 -2 5 17 5 19 0 27 -2 18 -5z m1349 1 c-3 -3 -12 -4 -19 -1
-8 3 -5 6 6 6 11 1 17 -2 13 -5z m-1363 -159 c1 -30 -2 -55 -6 -55 -5 0 -8 28
-8 62 0 34 3 58 7 55 3 -4 7 -32 7 -62z m-186 43 c14 -14 16 -76 3 -96 -5 -8
-21 -12 -37 -10 -27 3 -29 6 -32 51 -3 41 0 48 20 56 31 13 32 13 46 -1z m405
-1 c4 -10 -4 -14 -24 -14 -34 0 -39 14 -6 20 12 2 23 5 23 6 1 0 4 -5 7 -12z
m231 -13 c17 -44 -2 -104 -33 -104 -36 0 -61 62 -41 99 13 26 65 29 74 5z
m399 -86 c4 1 11 2 16 2 5 0 7 23 4 50 -3 32 -1 50 6 50 7 0 11 -22 11 -55 0
-57 -5 -62 -50 -55 -22 3 -22 3 -13 61 l8 54 5 -55 c3 -30 8 -54 13 -52z
m3627 50 c0 -26 -9 -19 -15 11 -2 12 0 19 6 16 5 -4 9 -16 9 -27z m-4263 0
c-3 -8 -6 -5 -6 6 -1 11 2 17 5 13 3 -3 4 -12 1 -19z m3913 -158 l0 -180 125
0 125 0 0 -200 0 -200 205 0 205 0 0 -230 0 -230 -207 -2 -208 -3 208 -2 207
-3 0 -70 0 -70 -535 0 -535 0 3 285 2 285 -1027 0 -1028 0 0 -1660 0 -1660
998 1 c548 1 1103 5 1232 8 l235 7 -207 2 -207 2 0 305 0 305 97 2 97 2 -97 3
-98 4 0 69 0 70 538 0 537 0 -3 -372 -3 -373 -122 -2 c-67 0 -164 -2 -214 -2
l-93 -1 0 -226 0 -225 -115 3 -115 3 0 -197 0 -197 -1540 0 -1540 0 0 197 0
197 -122 -3 -123 -3 3 220 c2 136 -1 222 -7 226 -6 3 -102 6 -216 5 l-205 0 0
1665 0 1665 210 0 210 0 0 201 0 200 125 -3 125 -3 0 183 0 182 1540 0 1540 0
0 -180z m1020 153 c0 -12 -2 -12 -15 1 -8 8 -15 17 -15 20 0 3 7 3 15 0 8 -4
15 -13 15 -21z m-858 -3 c0 -11 1 -24 2 -30 1 -5 -3 -9 -8 -7 -11 2 -14 57 -3
57 4 0 8 -9 9 -20z m228 -1 c0 -5 -4 -9 -10 -9 -5 0 -10 7 -10 16 0 8 5 12 10
9 6 -3 10 -10 10 -16z m-264 -19 c-1 -16 -4 -30 -8 -30 -10 0 -10 22 -2 44 9
23 11 20 10 -14z m1081 24 c-3 -3 -12 -4 -19 -1 -8 3 -5 6 6 6 11 1 17 -2 13
-5z m-5097 -29 c0 -22 -47 -42 -62 -27 -9 9 -6 12 15 12 15 0 30 7 33 15 8 19
14 19 14 0z m4708 -177 c3 -52 -14 -74 -52 -64 -38 10 -48 74 -16 106 15 15
25 17 42 11 19 -7 24 -17 26 -53z m-5124 21 c11 -33 1 -75 -20 -83 -45 -17
-75 33 -54 88 14 37 60 34 74 -5z m630 -1 c15 -41 -3 -82 -36 -86 -19 -2 -30
3 -38 18 -14 26 -5 86 13 94 27 11 52 0 61 -26z m143 10 c-3 -8 -6 -5 -6 6 -1
11 2 17 5 13 3 -3 4 -12 1 -19z m66 -11 c18 -56 -21 -108 -58 -77 -16 13 -21
75 -6 66 5 -3 7 -14 4 -24 -2 -10 3 -25 12 -32 22 -19 36 3 33 50 -2 28 -7 34
-22 32 -11 -2 -15 1 -11 8 12 19 38 6 48 -23z m-468 13 c-3 -5 -10 -10 -16
-10 -5 0 -9 5 -9 10 0 6 7 10 16 10 8 0 12 -4 9 -10z m4270 0 c-3 -5 -12 -10
-18 -10 -7 0 -6 4 3 10 19 12 23 12 15 0z m-4425 -10 c0 -5 -2 -10 -4 -10 -3
0 -8 5 -11 10 -3 6 -1 10 4 10 6 0 11 -4 11 -10z m4253 3 c-7 -2 -19 -2 -25 0
-7 3 -2 5 12 5 14 0 19 -2 13 -5z m227 3 c0 -2 -7 -9 -15 -16 -12 -10 -15 -10
-15 4 0 9 7 16 15 16 8 0 15 -2 15 -4z m-3685 -26 c-27 -12 -35 -12 -35 0 0 6
12 10 28 9 24 0 25 -1 7 -9z m75 0 c0 -5 -2 -10 -4 -10 -3 0 -8 5 -11 10 -3 6
-1 10 4 10 6 0 11 -4 11 -10z m3380 0 c0 -5 -2 -10 -4 -10 -3 0 -8 5 -11 10
-3 6 -1 10 4 10 6 0 11 -4 11 -10z m190 6 c0 -2 -3 -11 -6 -20 -9 -23 -23 -20
-21 4 1 11 7 20 14 20 7 0 13 -2 13 -4z m55 -6 c3 -5 1 -10 -4 -10 -6 0 -11 5
-11 10 0 6 2 10 4 10 3 0 8 -4 11 -10z m800 0 c3 -5 1 -10 -4 -10 -6 0 -11 5
-11 10 0 6 2 10 4 10 3 0 8 -4 11 -10z m-5105 -15 c8 -9 9 -15 2 -15 -6 0 -13
4 -17 10 -3 5 -12 7 -20 3 -8 -3 -15 0 -15 6 0 16 36 13 50 -4z m4272 -12 c-1
-4 7 -16 15 -25 15 -16 15 -18 0 -18 -10 0 -17 5 -17 10 0 6 -7 10 -15 10 -18
0 -19 12 -3 28 12 12 20 10 20 -5z m-39 -40 c-7 -2 -19 -2 -25 0 -7 3 -2 5 12
5 14 0 19 -2 13 -5z m-4250 -91 c-13 -2 -23 -10 -23 -17 0 -7 10 -15 23 -17
16 -2 23 -11 25 -30 3 -22 -2 -30 -23 -38 -27 -10 -45 -6 -45 10 0 4 8 6 18 3
10 -2 25 3 32 12 12 14 12 18 0 25 -8 5 -19 5 -26 -1 -8 -7 -14 -2 -19 18 -7
31 16 56 43 45 14 -6 13 -7 -5 -10z m451 -55 c1 -33 -3 -57 -9 -57 -6 0 -9 16
-7 38 3 26 -1 44 -12 55 -12 11 -13 17 -3 20 24 10 30 0 31 -56z m4495 29 c0
-7 -2 -6 -6 2 -2 6 -11 12 -19 12 -9 0 -12 5 -9 10 8 13 35 -6 34 -24z m161
24 c0 -5 -8 -10 -17 -10 -15 0 -16 2 -3 10 19 12 20 12 20 0z m-218 -51 c-5
-49 -4 -51 19 -47 16 2 23 9 22 22 -1 11 2 15 8 9 17 -17 -2 -44 -29 -41 -34
4 -46 27 -38 71 10 55 24 45 18 -14z m243 41 c3 -5 1 -10 -4 -10 -6 0 -11 5
-11 10 0 6 2 10 4 10 3 0 8 -4 11 -10z m-5560 -10 c-3 -5 -11 -10 -16 -10 -6
0 -7 5 -4 10 3 6 11 10 16 10 6 0 7 -4 4 -10z m5530 -38 c-21 -5 -19 -22 2
-22 13 0 14 -3 5 -12 -9 -9 -15 -8 -25 7 -12 15 -12 21 2 36 11 14 17 15 23 6
4 -7 2 -13 -7 -15z m40 8 c3 -5 1 -10 -4 -10 -6 0 -11 5 -11 10 0 6 2 10 4 10
3 0 8 -4 11 -10z m-4742 -30 c3 -11 1 -18 -4 -14 -5 3 -9 12 -9 20 0 20 7 17
13 -6z m-375 -186 c2 -39 -1 -53 -13 -57 -17 -7 -21 8 -5 18 12 8 13 72 1 79
-5 4 -16 3 -25 0 -19 -7 -22 -74 -4 -92 9 -9 9 -12 0 -12 -28 0 -44 84 -20
108 7 7 24 12 38 10 23 -3 25 -8 28 -54z m4862 46 c0 -5 -4 -10 -10 -10 -5 0
-10 5 -10 10 0 6 5 10 10 10 6 0 10 -4 10 -10z m58 -53 c2 -33 -1 -57 -7 -57
-6 0 -8 18 -5 44 5 38 3 46 -18 60 l-23 17 25 -4 c23 -4 25 -9 28 -60z m203
36 c22 -58 -14 -108 -61 -83 -23 12 -29 77 -8 98 22 22 58 14 69 -15z m-4661
-12 c0 -5 -20 -11 -45 -13 -25 -2 -45 0 -45 4 0 4 19 9 43 11 23 2 43 4 45 5
1 1 2 -2 2 -7z m-729 -74 c-6 -6 -8 -3 -6 9 2 11 5 30 6 44 2 19 3 17 6 -9 3
-18 0 -38 -6 -44z m69 63 c0 -6 -7 -13 -15 -16 -18 -7 -20 -30 -2 -37 7 -3 5
-6 -5 -6 -19 -1 -22 10 -12 47 6 22 34 32 34 12z m400 6 c0 -8 -51 -13 -56 -5
-3 5 9 9 25 9 17 0 31 -2 31 -4z m4086 -3 c-10 -10 -49 -12 -66 -2 -10 6 0 8
29 9 24 0 41 -3 37 -7z m203 3 c-12 -10 -59 -15 -59 -6 0 5 14 10 32 10 17 0
29 -2 27 -4z m379 -36 c1 -25 -4 -40 -11 -40 -9 0 -11 13 -9 40 2 22 8 40 12
40 4 0 8 -18 8 -40z m29 18 c-3 -8 -6 -5 -6 6 -1 11 2 17 5 13 3 -3 4 -12 1
-19z m373 2 c0 -5 -5 -10 -11 -10 -5 0 -7 5 -4 10 3 6 8 10 11 10 2 0 4 -4 4
-10z m-560 -50 c0 -12 -47 -14 -54 -2 -2 4 9 9 25 10 16 1 29 -2 29 -8z
m-4760 -107 c0 -14 -19 -38 -25 -32 -8 8 5 39 16 39 5 0 9 -3 9 -7z m50 -53
c0 -33 -4 -60 -9 -60 -4 0 -6 23 -3 50 4 44 2 50 -14 51 -18 0 -18 1 1 9 11 5
21 9 23 9 1 1 2 -26 2 -59z m4914 33 c7 -25 4 -83 -4 -83 -13 0 -18 49 -6 53
7 3 4 12 -8 26 -16 18 -17 21 -3 21 9 0 18 -8 21 -17z m-214 -27 c0 -19 3 -41
6 -50 3 -9 1 -16 -5 -16 -6 0 -11 17 -11 39 0 44 -13 59 -35 41 -8 -7 -15 -8
-15 -3 0 16 12 23 37 23 20 0 23 -5 23 -34z m164 2 c-4 -73 -5 -75 -13 -55 -8
21 -2 87 8 87 4 0 6 -15 5 -32z m221 22 c3 -5 1 -10 -4 -10 -6 0 -11 5 -11 10
0 6 2 10 4 10 3 0 8 -4 11 -10z m-5295 -4 c0 -3 -4 -8 -10 -11 -5 -3 -10 -1
-10 4 0 6 5 11 10 11 6 0 10 -2 10 -4z m3427 -16 c-1 -12 -5 -16 -10 -11 -5 5
-6 14 -3 20 11 16 15 13 13 -9z m-3647 -10 c-24 -15 -37 -11 -16 5 11 8 22 12
25 9 3 -3 -1 -9 -9 -14z m5685 -16 c-6 -49 -15 -56 -15 -12 0 30 6 48 17 48 1
0 1 -16 -2 -36z m-3445 17 c0 -5 -9 -7 -20 -4 -11 3 -20 7 -20 9 0 2 9 4 20 4
11 0 20 -4 20 -9z m790 -1 c0 -5 -7 -7 -15 -4 -16 6 -19 -4 -9 -30 3 -9 10
-13 15 -10 5 3 9 0 9 -6 0 -7 -7 -9 -16 -6 -9 3 -23 6 -32 7 -11 0 -12 2 -4 6
6 2 12 16 12 29 0 17 6 24 20 24 11 0 20 -4 20 -10z m-2813 -15 c0 -8 -4 -15
-9 -15 -10 0 -11 14 -1 23 9 10 10 9 10 -8z m148 -13 c-8 -8 -25 10 -19 20 4
6 9 5 15 -3 4 -7 6 -15 4 -17z m2852 -199 c-1 -43 -3 -8 -3 77 0 85 2 120 3
78 2 -43 2 -113 0 -155z m400 205 c-3 -8 -6 -5 -6 6 -1 11 2 17 5 13 3 -3 4
-12 1 -19z m1471 1 c-11 -17 -10 -22 6 -35 23 -16 14 -19 -14 -4 -21 11 -21
37 1 51 20 13 21 11 7 -12z m-4927 -32 c-8 -8 -11 -5 -11 9 0 27 14 41 18 19
2 -9 -1 -22 -7 -28z m2659 32 c0 -10 -66 -6 -77 4 -4 5 12 7 35 6 23 -2 42 -6
42 -10z m30 1 c0 -5 -2 -10 -4 -10 -3 0 -8 5 -11 10 -3 6 -1 10 4 10 6 0 11
-4 11 -10z m-640 -3 c0 -2 -12 -14 -27 -28 -20 -17 -23 -18 -10 -3 9 11 14 24
10 27 -3 4 1 7 10 7 10 0 17 -1 17 -3z m1187 -29 c-3 -7 -5 -2 -5 12 0 14 2
19 5 13 2 -7 2 -19 0 -25z m253 7 c0 -13 -29 -29 -38 -20 -3 2 2 7 11 11 9 3
13 12 10 21 -4 11 -2 14 5 9 7 -4 12 -13 12 -21z m1840 5 c0 -5 -2 -10 -4 -10
-3 0 -8 5 -11 10 -3 6 -1 10 4 10 6 0 11 -4 11 -10z m-5270 -16 c0 -2 -7 -4
-15 -4 -8 0 -15 4 -15 10 0 5 7 7 15 4 8 -4 15 -8 15 -10z m2020 2 c0 -2 -9
-6 -20 -9 -11 -3 -18 -1 -14 4 5 9 34 13 34 5z m-1834 -126 c8 0 14 -5 14 -10
0 -6 -8 -10 -17 -8 -15 2 -17 -3 -15 -29 2 -19 -1 -33 -7 -33 -12 0 -15 82 -4
94 4 4 9 2 11 -3 2 -6 10 -11 18 -11z m1840 -4 c19 -30 15 -65 -8 -80 -26 -16
-52 4 -56 43 -6 58 34 81 64 37z m3292 17 c-10 -2 -22 -19 -27 -36 -5 -18 -10
-24 -10 -14 -1 10 -5 15 -11 12 -5 -3 -10 -1 -10 4 0 6 7 11 15 11 21 0 19 18
-2 23 -10 3 0 5 22 5 22 0 32 -2 23 -5z m-5323 -14 c11 -17 -1 -21 -15 -4 -8
9 -8 15 -2 15 6 0 14 -5 17 -11z m1832 -9 c4 -13 3 -13 -6 0 -14 20 -45 2 -49
-30 -7 -45 42 -51 52 -7 2 14 4 10 3 -8 -2 -25 -7 -31 -29 -33 -36 -4 -54 30
-39 71 9 23 16 28 38 25 14 -2 28 -10 30 -18z m573 3 c0 -11 -3 -14 -8 -7 -4
6 -14 14 -22 17 -10 4 -8 6 8 6 15 1 22 -5 22 -16z m1034 2 c11 -8 15 -15 10
-15 -6 0 -15 5 -22 12 -8 8 -15 8 -29 -3 -16 -13 -17 -12 -4 4 16 20 20 21 45
2z m-207 -35 c2 -22 -2 -40 -7 -40 -6 0 -10 18 -10 40 0 52 14 52 17 0z m1638
30 c3 -5 1 -10 -4 -10 -6 0 -11 5 -11 10 0 6 2 10 4 10 3 0 8 -4 11 -10z m50
-15 c0 -14 -5 -25 -11 -25 -6 0 -10 10 -8 23 3 28 3 27 12 27 4 0 7 -11 7 -25z
m-5148 -37 c-2 -13 -4 -5 -4 17 -1 22 1 32 4 23 2 -10 2 -28 0 -40z m2616 32
c22 -26 22 -33 -2 -25 -14 4 -21 0 -24 -12 -3 -10 -5 -1 -6 20 -1 42 7 46 32
17z m814 14 c-3 -3 -12 -4 -19 -1 -8 3 -5 6 6 6 11 1 17 -2 13 -5z m413 -4 c0
-5 -2 -10 -4 -10 -3 0 -8 5 -11 10 -3 6 -1 10 4 10 6 0 11 -4 11 -10z m1270
-26 c0 -9 -5 -12 -12 -8 -7 4 -4 -3 7 -16 l20 -23 -22 12 c-32 17 -30 39 5 50
1 1 2 -6 2 -15z m-2073 -16 c-3 -8 -6 -5 -6 6 -1 11 2 17 5 13 3 -3 4 -12 1
-19z m365 -3 c3 -14 1 -25 -3 -25 -5 0 -9 11 -9 25 0 14 2 25 4 25 2 0 6 -11
8 -25z m223 0 c0 -14 -3 -25 -7 -25 -5 0 -8 11 -8 25 0 14 3 25 8 25 4 0 7
-11 7 -25z m52 -7 c-3 -8 -6 -5 -6 6 -1 11 2 17 5 13 3 -3 4 -12 1 -19z
m-3447 2 c0 -5 -5 -10 -11 -10 -5 0 -7 5 -4 10 3 6 8 10 11 10 2 0 4 -4 4 -10z
m5310 2 c0 -4 -15 -8 -32 -9 -27 -2 -29 0 -13 7 26 11 45 12 45 2z m-2523 -8
c-3 -3 -12 -4 -19 -1 -8 3 -5 6 6 6 11 1 17 -2 13 -5z m210 -191 c-2 -21 -4
-6 -4 32 0 39 2 55 4 38 2 -18 2 -50 0 -70z m235 69 c4 -15 -1 -17 -34 -14
-21 2 -38 9 -38 14 0 6 9 8 20 5 11 -3 23 -1 26 4 9 14 21 10 26 -9z m-1082
-12 c-18 -11 -8 -74 12 -78 21 -4 31 28 19 62 -9 21 -8 26 4 26 11 0 15 -13
15 -50 0 -48 -1 -50 -28 -50 -34 0 -52 16 -52 47 0 29 21 64 33 56 5 -3 4 -9
-3 -13z m267 -36 c3 -55 -10 -71 -48 -59 -28 9 -23 23 6 17 20 -3 25 0 25 17
0 11 -6 21 -12 21 -9 0 -9 3 1 9 8 5 11 16 8 25 -5 14 -11 15 -27 6 -16 -9
-20 -8 -20 5 0 12 8 15 32 13 31 -3 32 -4 35 -54z m393 41 c11 -13 8 -14 -19
-9 -31 6 -31 6 -31 -34 0 -23 5 -43 13 -46 6 -3 3 -5 -8 -3 -15 2 -21 11 -23
38 -5 55 39 89 68 54z m620 5 c0 -5 -7 -10 -15 -10 -10 0 -15 -9 -14 -27 0
-25 1 -26 9 -8 5 11 9 17 9 13 1 -3 3 -12 6 -20 4 -9 -3 -14 -20 -16 -23 -2
-25 1 -19 26 8 32 44 67 44 42z m-3693 -45 c-1 -25 3 -47 8 -49 6 -3 2 -5 -7
-5 -15 -1 -18 8 -18 49 0 28 4 50 9 50 5 0 8 -20 8 -45z m50 -17 c-2 -59 -17
-45 -17 15 1 34 4 47 9 37 5 -8 9 -32 8 -52z m408 52 c-3 -5 -13 -6 -21 -3
-12 4 -15 1 -12 -13 2 -11 11 -18 21 -16 10 2 17 -4 17 -13 0 -8 -9 -15 -20
-15 -11 0 -20 -6 -20 -14 0 -9 9 -12 28 -8 15 2 24 2 20 -2 -10 -12 -42 -14
-61 -4 -18 9 -18 17 4 76 5 13 17 22 29 22 12 0 19 -4 15 -10z m1582 -82 c-2
-18 -4 -4 -4 32 0 36 2 50 4 33 2 -18 2 -48 0 -65z m3108 72 c-3 -5 -11 -10
-16 -10 -6 0 -7 5 -4 10 3 6 11 10 16 10 6 0 7 -4 4 -10z m-1705 -20 c0 -5 -4
-10 -10 -10 -5 0 -10 5 -10 10 0 6 5 10 10 10 6 0 10 -4 10 -10z m41 -11 c-2
-8 -3 -22 -3 -31 1 -14 -7 -18 -31 -17 -24 1 -26 3 -9 6 17 3 22 11 22 35 0
19 4 28 13 25 6 -2 10 -11 8 -18z m1689 1 c0 -11 -4 -20 -8 -20 -4 0 -8 9 -9
20 -1 11 2 20 8 20 5 0 9 -9 9 -20z m400 9 c0 -5 -4 -7 -10 -4 -5 3 -10 -1
-10 -9 0 -9 -7 -16 -15 -16 -13 0 -13 3 -3 20 14 21 38 27 38 9z m-5740 -13
c0 -3 -4 -8 -10 -11 -5 -3 -10 -1 -10 4 0 6 5 11 10 11 6 0 10 -2 10 -4z
m2430 0 c0 -11 -19 -15 -25 -6 -3 5 1 10 9 10 9 0 16 -2 16 -4z m630 -6 c0 -5
-2 -10 -4 -10 -3 0 -8 5 -11 10 -3 6 -1 10 4 10 6 0 11 -4 11 -10z m2250 1 c0
-6 -4 -13 -10 -16 -5 -3 -10 1 -10 9 0 9 5 16 10 16 6 0 10 -4 10 -9z m200 -1
c0 -5 -5 -10 -11 -10 -5 0 -7 5 -4 10 3 6 8 10 11 10 2 0 4 -4 4 -10z m-2267
-30 c3 -11 1 -20 -4 -20 -5 0 -9 9 -9 20 0 11 2 20 4 20 2 0 6 -9 9 -20z
m-1036 -77 c-3 -10 -5 -4 -5 12 0 17 2 24 5 18 2 -7 2 -21 0 -30z m-1987 -59
c0 -8 -4 -12 -10 -9 -5 3 -10 13 -10 21 0 8 5 12 10 9 6 -3 10 -13 10 -21z
m1987 -21 c-3 -10 -5 -2 -5 17 0 19 2 27 5 18 2 -10 2 -26 0 -35z m423 -18 c0
-44 -3 -54 -19 -58 -11 -3 -29 2 -40 10 -43 30 -11 119 38 106 18 -5 21 -13
21 -58z m194 31 c9 -47 -2 -83 -26 -89 -18 -5 -19 -4 -4 12 21 23 21 77 0 85
-17 7 -10 26 10 26 8 0 17 -15 20 -34z m806 -26 c0 -33 -4 -60 -10 -60 -5 0
-10 23 -10 50 0 41 -3 50 -17 50 -15 0 -16 2 -3 10 32 21 40 11 40 -50z m1251
33 c1 -16 2 -41 3 -56 1 -16 -2 -31 -6 -33 -4 -3 -8 12 -8 33 0 21 -3 48 -6
61 -4 13 -2 22 5 22 6 0 12 -12 12 -27z m660 17 c13 -7 19 -21 19 -45 0 -53
-8 -65 -46 -65 -34 0 -34 0 -34 48 0 64 19 84 61 62z m-5374 -22 c-3 -8 -6 -5
-6 6 -1 11 2 17 5 13 3 -3 4 -12 1 -19z m5153 -33 c0 -30 -3 -55 -7 -55 -5 0
-8 25 -8 55 0 30 3 55 8 55 4 0 7 -25 7 -55z m-1493 -32 c-2 -16 -4 -5 -4 22
0 28 2 40 4 28 2 -13 2 -35 0 -50z m-577 53 c0 -3 -4 -8 -10 -11 -5 -3 -10 -1
-10 4 0 6 5 11 10 11 6 0 10 -2 10 -4z m185 -63 c-5 -15 -31 -17 -40 -3 -3 6
1 7 9 4 13 -5 16 2 17 32 l1 39 9 -30 c5 -16 7 -36 4 -42z m626 40 c-8 -15
-10 -15 -11 -2 0 17 10 32 18 25 2 -3 -1 -13 -7 -23z m639 12 c0 -8 -4 -15
-10 -15 -5 0 -7 7 -4 15 4 8 8 15 10 15 2 0 4 -7 4 -15z m-4525 -35 c0 -16 -3
-30 -7 -30 -10 0 -10 44 -1 53 3 4 7 7 7 7 1 0 1 -13 1 -30z m45 0 c0 -19 -5
-30 -14 -30 -12 0 -12 5 -3 30 6 17 13 30 14 30 2 0 3 -13 3 -30z m-236 -5
c-4 -8 -8 -15 -10 -15 -2 0 -4 7 -4 15 0 8 4 15 10 15 5 0 7 -7 4 -15z m3393
-7 c-3 -8 -6 -5 -6 6 -1 11 2 17 5 13 3 -3 4 -12 1 -19z m878 2 c3 -6 -4 -10
-17 -10 -18 0 -20 2 -8 10 19 12 18 12 25 0z m-2048 -82 c-3 -8 -6 -5 -6 6 -1
11 2 17 5 13 3 -3 4 -12 1 -19z m4 -88 c0 -34 -2 -65 -5 -68 -4 -3 -6 28 -6
68 0 40 3 71 6 68 3 -4 5 -34 5 -68z m2666 56 c-4 -9 4 -16 23 -19 25 -5 28
-11 32 -52 3 -40 1 -45 -17 -45 -12 0 -16 3 -9 8 18 11 12 77 -6 77 -11 0 -15
-12 -15 -43 0 -31 -4 -42 -15 -42 -12 0 -15 14 -15 65 0 48 4 65 14 65 7 0 11
-6 8 -14z m-4677 -50 c0 -34 5 -56 13 -59 6 -3 1 -6 -13 -6 -24 -1 -25 1 -22
49 3 37 0 50 -10 50 -10 0 -9 3 2 10 26 17 30 11 30 -44z m225 44 c3 -5 -2
-24 -11 -42 -9 -18 -17 -42 -18 -53 -1 -20 -36 -36 -36 -16 0 6 5 11 12 11 6
0 9 3 5 6 -3 3 3 23 14 42 10 20 19 40 19 44 0 14 -23 9 -42 -9 -20 -18 -25
-4 -6 15 14 14 54 16 63 2z m191 -42 c-5 -37 -4 -53 6 -59 10 -7 9 -9 -4 -9
-15 0 -18 9 -18 44 0 24 -3 51 -6 60 -4 11 -1 16 11 16 15 0 17 -7 11 -52z
m1822 40 c7 -7 12 -31 12 -55 0 -36 -4 -45 -25 -55 -32 -14 -51 1 -58 45 -7
46 8 77 36 77 13 0 28 -5 35 -12z m192 4 c0 -18 -35 -112 -42 -112 -12 0 -10
16 7 57 20 47 20 46 -15 40 -27 -6 -38 1 -24 15 7 8 74 8 74 0z m202 -52 c2
-44 0 -60 -10 -60 -10 0 -12 14 -10 54 3 49 2 53 -17 49 -16 -4 -17 -3 -5 6
30 21 38 12 42 -49z m604 -37 c-3 -6 0 -13 7 -16 6 -2 4 -6 -6 -10 -14 -5 -17
0 -19 31 0 20 0 45 1 56 1 14 -4 17 -19 13 -27 -7 -25 2 3 12 20 8 23 5 30
-33 4 -22 5 -46 3 -53z m438 81 c12 -30 6 -91 -9 -104 -42 -35 -91 46 -59 98
17 26 59 30 68 6z m159 4 c2 -7 1 -22 -3 -32 -10 -31 0 -67 19 -64 23 5 26 36
5 59 -15 17 -16 19 -1 19 18 0 31 -36 25 -67 -2 -13 -14 -19 -38 -21 l-35 -3
0 61 c0 38 4 60 11 60 7 0 14 -6 17 -12z m265 -11 c3 -16 1 -17 -17 -5 -15 9
-23 10 -32 1 -15 -15 -2 -34 18 -26 11 4 14 3 9 -5 -4 -7 -13 -12 -21 -12 -17
0 -26 -25 -13 -38 7 -7 19 -7 34 -2 29 12 31 5 4 -10 -12 -6 -30 -8 -40 -5
-17 5 -20 15 -20 60 0 57 7 65 50 62 15 -1 26 -9 28 -20z m1249 -39 c2 -60 -9
-75 -48 -63 -27 9 -23 23 5 18 30 -6 45 16 23 32 -21 15 -22 25 -3 25 11 0 14
15 7 37 -1 1 -12 -2 -26 -7 -14 -5 -25 -6 -25 -1 0 12 20 20 45 18 17 -2 20
-10 22 -59z m-1887 6 c0 -23 2 -48 5 -56 4 -9 -5 -13 -32 -13 -34 0 -38 3 -38
25 0 17 8 29 28 38 32 16 26 36 -9 28 -13 -4 -24 -2 -24 3 0 12 19 19 48 18
19 -1 22 -7 22 -43z m1040 36 c0 -5 -5 -10 -11 -10 -5 0 -7 5 -4 10 3 6 8 10
11 10 2 0 4 -4 4 -10z m602 -27 l-4 -38 33 30 c19 17 26 21 16 9 -21 -25 -21
-31 -1 -52 13 -12 14 -17 4 -20 -7 -3 -17 3 -22 12 -11 20 -28 21 -28 1 0 -8
-3 -15 -7 -15 -5 0 -8 25 -9 55 0 35 4 55 11 55 7 0 9 -14 7 -37z m598 24 c0
-8 -7 -14 -15 -14 -16 0 -19 9 -8 20 11 11 23 8 23 -6z m-767 -7 c7 0 12 -19
13 -49 1 -47 0 -48 -26 -47 -40 2 -61 24 -57 58 3 31 24 51 45 43 8 -3 19 -5
25 -5z m-678 -31 c-6 -45 -15 -49 -15 -6 0 21 4 37 10 37 5 0 7 -14 5 -31z
m50 21 c3 -5 1 -10 -4 -10 -6 0 -11 5 -11 10 0 6 2 10 4 10 3 0 8 -4 11 -10z
m-4505 -14 c0 -2 -7 -7 -16 -10 -8 -3 -12 -2 -9 4 6 10 25 14 25 6z m5902 -57
c10 -7 9 -9 -3 -9 -19 0 -29 21 -28 53 1 18 2 16 9 -7 5 -16 15 -33 22 -37z
m-2842 31 c0 -5 -2 -10 -4 -10 -3 0 -8 5 -11 10 -3 6 -1 10 4 10 6 0 11 -4 11
-10z m1621 -27 c10 3 19 1 19 -5 0 -16 -45 -4 -46 12 -1 10 0 11 3 2 3 -8 13
-12 24 -9z m-4684 -9 c-3 -3 -12 -4 -19 -1 -8 3 -5 6 6 6 11 1 17 -2 13 -5z
m3408 -4 c-3 -5 -10 -10 -16 -10 -5 0 -9 5 -9 10 0 6 7 10 16 10 8 0 12 -4 9
-10z m-1184 -107 c12 -15 12 -16 -2 -11 -9 4 -21 2 -27 -4 -8 -8 -9 -5 -5 11
6 25 16 27 34 4z m394 -82 c-3 -8 0 -18 7 -23 9 -5 7 -8 -7 -8 -18 0 -20 5
-17 55 3 41 0 55 -10 55 -10 0 -9 3 2 10 12 8 16 1 23 -33 4 -23 5 -48 2 -56z
m815 34 c0 -53 -3 -65 -16 -65 -11 0 -14 5 -10 16 3 9 6 38 6 65 0 27 5 49 10
49 6 0 10 -28 10 -65z m868 -2 c-6 -87 -70 -87 -76 1 -3 41 0 47 20 55 40 15
59 -4 56 -56z m-4081 46 c11 -11 5 -59 -8 -59 -4 0 -7 12 -6 28 2 24 -1 27
-26 25 -15 -1 -25 2 -22 8 8 12 48 12 62 -2z m409 -49 c-1 -37 -5 -60 -12 -60
-8 0 -10 15 -6 45 3 28 0 50 -8 60 -10 12 -9 15 7 15 17 0 19 -7 19 -60z
m3031 43 c3 -7 -4 -9 -16 -6 -27 7 -44 -27 -31 -61 11 -30 34 -34 49 -8 10 16
10 16 11 0 0 -22 -45 -35 -65 -18 -8 7 -15 25 -15 41 0 46 55 89 67 52z m1271
-40 c-3 -49 -6 -58 -23 -61 -18 -2 -18 -1 -5 10 17 14 17 75 1 91 -14 14 -29
-24 -26 -65 2 -21 -1 -38 -6 -38 -5 0 -9 27 -9 60 l0 60 35 0 36 0 -3 -57z
m612 8 c0 -56 -18 -79 -47 -62 -17 10 -16 10 4 11 12 0 23 7 25 18 6 29 -4 62
-19 62 -8 0 -11 5 -8 10 3 6 15 10 26 10 16 0 19 -7 19 -49z m209 35 c17 -20
-1 -51 -31 -53 l-23 -1 23 10 c12 6 22 20 22 31 0 16 -5 18 -26 13 -17 -5 -23
-3 -19 4 9 15 41 12 54 -4z m-3329 -63 c0 -34 -3 -41 -15 -37 -13 5 -13 9 -3
22 11 12 11 16 0 20 -10 3 -10 7 -1 18 8 10 8 14 1 14 -6 0 -9 7 -5 16 10 26
23 -4 23 -53z m840 55 c0 -25 -12 -58 -21 -58 -5 0 -4 12 1 26 13 32 12 37 0
29 -5 -3 -10 -1 -10 4 0 6 7 11 15 11 8 0 15 -6 15 -12z m-1052 -38 c-7 -10
-14 -17 -17 -15 -4 4 18 35 25 35 2 0 -1 -9 -8 -20z m2275 13 c-13 -2 -33 -2
-45 0 -13 2 -3 4 22 4 25 0 35 -2 23 -4z m854 1 c-3 -3 -12 -4 -19 -1 -8 3 -5
6 6 6 11 1 17 -2 13 -5z m-5145 -41 c-6 -2 -10 -9 -7 -13 3 -5 12 -7 19 -4 8
3 17 1 20 -4 3 -5 -10 -9 -29 -10 -19 -1 -35 0 -35 2 0 18 15 36 29 35 10 0
11 -2 3 -6z m5530 -25 c-11 -11 -32 -3 -32 12 0 4 9 6 21 3 13 -4 17 -9 11
-15z m-2472 8 c0 -3 -4 -8 -10 -11 -5 -3 -10 -1 -10 4 0 6 5 11 10 11 6 0 10
-2 10 -4z m-1033 -12 c-3 -3 -12 -4 -19 -1 -8 3 -5 6 6 6 11 1 17 -2 13 -5z
m-2006 -100 c10 -12 10 -22 2 -45 -6 -16 -7 -29 -2 -29 14 0 -1 -28 -18 -35
-9 -3 -21 -1 -27 5 -7 7 -3 10 12 10 19 0 21 4 16 25 -4 14 -2 25 4 25 6 0 9
8 7 18 -1 10 -11 17 -24 16 -23 -1 -28 11 -8 19 20 9 24 8 38 -9z m414 -54 c0
-41 -4 -60 -12 -60 -14 0 -19 101 -6 113 15 15 19 4 18 -53z m1582 38 c-3 -8
-6 -5 -6 6 -1 11 2 17 5 13 3 -3 4 -12 1 -19z m227 6 c32 -31 13 -104 -27
-104 -33 0 -47 19 -47 60 0 56 39 79 74 44z m998 -66 c2 -27 0 -48 -4 -48 -5
0 -7 30 -7 68 2 69 6 62 11 -20z m626 21 c-4 -38 -2 -49 11 -52 9 -3 2 -5 -16
-6 -17 0 -35 4 -39 11 -5 8 -2 9 9 5 14 -5 17 1 17 38 0 36 -4 45 -17 46 -15
0 -15 2 2 8 31 13 38 2 33 -50z m195 -6 c4 -47 2 -53 -15 -53 -11 0 -17 3 -15
8 3 4 6 27 8 52 5 83 15 80 22 -7z m447 58 c0 -6 -4 -12 -9 -16 -5 -3 -8 -19
-6 -37 3 -19 1 -28 -4 -22 -8 8 -15 54 -12 77 1 10 31 9 31 -2z m191 2 c6 -93
4 -120 -8 -116 -8 3 -13 23 -13 54 0 28 -5 49 -11 49 -5 0 -7 5 -4 10 7 12 35
14 36 3z m223 -40 c-1 -69 -6 -75 -13 -18 -7 51 -5 65 7 65 4 0 7 -21 6 -47z
m396 43 c0 -2 -7 -6 -15 -10 -8 -3 -15 -1 -15 4 0 6 7 10 15 10 8 0 15 -2 15
-4z m40 -30 c-5 -5 -10 -25 -10 -42 0 -18 -4 -35 -8 -38 -5 -3 -8 13 -8 35 1
21 5 39 9 39 5 0 5 10 1 22 -6 21 -5 21 10 9 12 -10 14 -17 6 -25z m180 -28
c0 -34 -2 -59 -5 -56 -7 7 -14 101 -8 111 10 17 13 4 13 -55z m180 52 c0 -5
-7 -10 -15 -10 -8 0 -15 5 -15 10 0 6 7 10 15 10 8 0 15 -4 15 -10z m-1400
-54 c0 -50 -10 -61 -46 -52 -20 5 -24 12 -24 45 0 45 5 51 42 51 27 0 28 -2
28 -44z m-1453 2 c-3 -8 -6 -5 -6 6 -1 11 2 17 5 13 3 -3 4 -12 1 -19z m180 0
c-3 -8 -6 -5 -6 6 -1 11 2 17 5 13 3 -3 4 -12 1 -19z m-3217 8 c0 -2 -7 -7
-16 -10 -8 -3 -12 -2 -9 4 6 10 25 14 25 6z m2187 -48 c-2 -13 -4 -5 -4 17 -1
22 1 32 4 23 2 -10 2 -28 0 -40z m1415 0 c-7 -7 -12 -8 -12 -2 0 14 12 26 19
19 2 -3 -1 -11 -7 -17z m1073 -8 c3 -5 -1 -10 -10 -10 -9 0 -13 5 -10 10 3 6
8 10 10 10 2 0 7 -4 10 -10z m800 0 c3 -5 2 -10 -4 -10 -5 0 -13 5 -16 10 -3
6 -2 10 4 10 5 0 13 -4 16 -10z m-3288 -177 c-2 -21 -4 -4 -4 37 0 41 2 58 4
38 2 -21 2 -55 0 -75z m418 83 c13 -20 16 -72 6 -113 -1 -2 -12 -3 -26 -3 -52
0 -74 104 -24 117 10 3 16 9 13 14 -13 21 17 7 31 -15z m802 -88 c-2 -24 -4
-7 -4 37 0 44 2 63 4 43 2 -21 2 -57 0 -80z m-3203 67 c10 -41 -4 -85 -30 -91
-36 -9 -54 12 -54 61 0 34 4 44 22 52 31 14 55 5 62 -22z m199 -3 c-10 -28
-35 -63 -41 -58 -2 3 3 17 12 30 21 33 21 36 -10 36 -14 0 -23 4 -19 10 3 5
12 7 20 3 8 -3 15 0 15 7 0 10 3 10 14 0 8 -6 12 -19 9 -28z m2432 -12 c8 -47
-8 -80 -38 -80 -33 0 -47 19 -47 60 0 39 8 55 30 62 31 10 49 -4 55 -42z
m2073 27 c17 -13 15 -82 -2 -97 -37 -30 -96 22 -81 70 14 45 46 56 83 27z
m-1258 4 c0 -15 -18 -23 -25 -11 -9 14 -45 13 -45 -2 0 -6 -3 -9 -6 -5 -3 3
-3 10 1 16 8 13 75 15 75 2z m830 -3 c0 -4 -15 -8 -32 -7 -26 0 -29 2 -13 8
25 10 45 10 45 -1z m200 -13 c0 -14 -5 -25 -11 -25 -6 0 -9 7 -5 15 4 10 -1
15 -14 15 -11 0 -20 5 -20 10 0 6 11 10 25 10 20 0 25 -5 25 -25z m848 13 c-3
-7 -11 -34 -19 -60 -10 -38 -18 -48 -34 -47 -20 0 -20 0 0 9 11 5 17 9 12 9
-4 1 0 17 8 37 18 43 11 58 -22 49 -16 -4 -22 -2 -18 5 9 15 78 13 73 -2z
m-2304 -20 c12 -55 12 -88 2 -85 -6 3 -10 10 -8 17 7 30 -10 70 -29 70 -11 0
-17 5 -14 10 12 19 44 11 49 -12z m628 7 c11 -14 10 -97 -1 -91 -4 3 -6 17 -3
31 4 21 1 24 -14 19 -17 -6 -17 -5 1 9 11 9 15 17 9 17 -7 0 -14 7 -18 15 -6
16 14 16 26 0z m1462 9 c26 -10 18 -23 -11 -21 -22 2 -29 -3 -31 -21 -5 -35
15 -54 42 -41 20 11 20 10 4 -7 -14 -15 -21 -16 -43 -6 -29 14 -35 61 -9 86
17 18 24 19 48 10z m-2334 -14 c0 -5 -4 -10 -10 -10 -5 0 -10 5 -10 10 0 6 5
10 10 10 6 0 10 -4 10 -10z m16 -48 c-12 -11 -17 7 -9 34 l8 29 3 -28 c2 -16
1 -31 -2 -35z m804 48 c0 -5 -4 -10 -10 -10 -5 0 -10 5 -10 10 0 6 5 10 10 10
6 0 10 -4 10 -10z m425 -44 c3 -31 1 -46 -6 -44 -6 2 -10 7 -10 11 1 4 1 26 1
49 0 54 9 44 15 -16z m-4245 30 c0 -8 -4 -17 -8 -20 -4 -2 -8 4 -8 15 0 10 4
19 8 19 4 0 8 -6 8 -14z m3637 8 c-3 -3 -12 -4 -19 -1 -8 3 -5 6 6 6 11 1 17
-2 13 -5z m380 -16 c-3 -8 -6 -5 -6 6 -1 11 2 17 5 13 3 -3 4 -12 1 -19z m437
-9 c-8 -13 -24 -1 -24 18 0 13 3 13 15 3 8 -7 12 -16 9 -21z m-1248 -29 c1
-16 -3 -27 -7 -24 -11 6 -12 54 -1 54 4 0 7 -13 8 -30z m616 1 c3 -18 0 -27
-7 -25 -13 5 -19 54 -6 54 5 0 11 -13 13 -29z m876 -6 c0 -13 -4 -22 -9 -19
-5 3 -9 14 -9 25 0 10 4 19 9 19 5 0 9 -11 9 -25z m-1052 -1 c-3 -9 -6 -18 -6
-20 0 -2 -7 -4 -15 -4 -13 0 -13 3 -3 20 15 24 33 27 24 4z m804 6 c0 -5 11
-10 25 -10 14 0 25 -4 25 -10 0 -14 -43 -13 -58 2 -15 15 -16 28 -2 28 6 0 10
-4 10 -10z m-4039 -10 c10 0 19 -4 19 -10 0 -5 -18 -10 -40 -10 -38 0 -49 8
-33 24 4 3 13 4 21 1 7 -3 22 -5 33 -5z m1796 -172 c-2 -13 -4 -3 -4 22 0 25
2 35 4 23 2 -13 2 -33 0 -45z m-1567 -8 c0 -62 -42 -78 -73 -28 -15 22 1 68
26 77 31 12 47 -5 47 -49z m1780 41 c0 -10 -7 -22 -16 -25 -14 -5 -15 -4 -5 8
7 8 10 20 6 26 -3 5 -1 10 4 10 6 0 11 -9 11 -19z m425 9 c4 -6 -5 -10 -19
-10 -19 0 -26 -5 -26 -19 0 -14 5 -18 20 -14 13 3 20 0 20 -8 0 -9 -11 -14
-29 -14 -26 0 -29 3 -29 30 0 17 3 33 5 38 6 11 51 9 58 -3z m199 -9 c19 -21
18 -77 -1 -93 -45 -37 -100 54 -57 96 20 21 37 20 58 -3z m392 -41 c-1 -33 -4
-60 -8 -60 -5 0 -8 27 -8 60 0 33 4 60 8 60 5 0 8 -27 8 -60z m216 48 c6 -18
-3 -68 -13 -68 -5 0 -8 3 -8 8 6 33 -3 52 -23 52 -19 0 -20 2 -8 10 21 13 48
12 52 -2z m1050 -46 c-4 -57 -4 -58 -33 -58 -17 0 -28 4 -26 10 2 6 13 10 24
8 18 -2 20 2 18 38 -3 48 -9 57 -30 40 -12 -10 -15 -10 -15 4 0 11 9 16 33 16
l32 0 -3 -58z m233 -3 c1 -24 -3 -47 -9 -51 -16 -11 -76 -10 -76 2 0 5 6 7 14
4 16 -6 26 43 15 72 -4 11 -8 15 -8 11 -1 -5 -7 -5 -13 0 -17 10 42 22 61 12
9 -4 15 -24 16 -50z m403 49 c15 -15 16 -63 2 -89 -6 -11 -21 -19 -36 -19 -15
0 -23 4 -19 10 4 6 14 9 23 8 13 -2 18 6 20 36 4 43 -13 71 -28 46 -5 -8 -12
-11 -15 -8 -11 10 4 28 24 28 9 0 22 -5 29 -12z m210 -5 c14 -28 -8 -62 -33
-52 -17 7 -18 8 -2 8 10 1 20 8 24 17 8 21 -17 36 -34 22 -15 -13 -28 -4 -18
11 10 17 53 13 63 -6z m-5348 3 c0 -9 -30 -14 -35 -6 -4 6 3 10 14 10 12 0 21
-2 21 -4z m2181 -19 c-10 -9 -11 -8 -5 6 3 10 9 15 12 12 3 -3 0 -11 -7 -18z
m1899 -7 c0 -5 -2 -10 -4 -10 -3 0 -8 5 -11 10 -3 6 -1 10 4 10 6 0 11 -4 11
-10z m840 2 c0 -5 -7 -9 -15 -9 -8 0 -15 4 -15 9 0 4 7 8 15 8 8 0 15 -4 15
-8z m-2530 -18 c0 -8 -5 -12 -10 -9 -6 4 -8 11 -5 16 9 14 15 11 15 -7z m2280
-9 c0 -14 -4 -25 -10 -25 -5 0 -10 11 -10 25 0 14 5 25 10 25 6 0 10 -11 10
-25z m440 5 c13 -8 13 -10 -2 -10 -9 0 -20 5 -23 10 -8 13 5 13 25 0z m-5127
-20 c-3 -11 -7 -20 -9 -20 -2 0 -4 9 -4 20 0 11 4 20 9 20 5 0 7 -9 4 -20z
m2024 -32 c-3 -7 -5 -2 -5 12 0 14 2 19 5 13 2 -7 2 -19 0 -25z m618 6 c17 4
24 3 20 -4 -3 -5 -19 -10 -36 -10 -21 0 -29 5 -29 18 0 13 2 14 9 3 6 -9 18
-11 36 -7z m2703 0 c-8 -9 -24 -14 -34 -11 -17 3 -16 5 6 15 36 16 47 14 28
-4z m-1888 -4 c-20 -13 -40 -13 -40 0 0 6 12 10 28 10 21 0 24 -2 12 -10z
m-1430 -90 c0 -5 -5 -10 -11 -10 -5 0 -7 5 -4 10 3 6 8 10 11 10 2 0 4 -4 4
-10z m2489 -8 c5 -10 7 -37 4 -60 -5 -35 -10 -43 -31 -49 -31 -8 -52 17 -52
63 0 55 57 88 79 46z m-2279 -1 c14 -4 20 -9 15 -13 -6 -3 -23 1 -40 8 -32 14
-17 17 25 5z m160 -11 c-8 -5 -17 -7 -19 -4 -3 3 1 9 9 14 8 5 17 7 19 4 3 -3
-1 -9 -9 -14z m48 -53 c-3 -35 -7 -43 -27 -45 -25 -4 -50 13 -37 25 4 4 11 2
15 -5 7 -12 41 -7 41 7 0 11 -15 28 -30 34 -10 4 -8 6 8 6 23 1 30 15 12 26
-6 4 -7 11 -4 17 12 19 25 -20 22 -65z m221 51 c18 -47 0 -98 -35 -98 -36 0
-56 56 -38 104 10 25 63 21 73 -6z m173 -13 c-5 -41 -23 -48 -20 -7 2 31 6 42
17 42 4 0 5 -16 3 -35z m608 -25 c0 -33 -4 -60 -9 -60 -5 0 -8 21 -8 47 0 27
-4 48 -11 51 -16 5 -5 22 14 22 11 0 14 -14 14 -60z m848 13 c-1 -44 -2 -45
-5 -10 -3 24 -9 37 -19 37 -8 0 -14 5 -14 10 0 6 9 10 20 10 17 0 20 -6 18
-47z m866 31 c3 -9 6 -28 6 -44 0 -16 -3 -35 -6 -44 -7 -19 -45 -21 -62 -4
-13 13 -17 90 -5 101 13 13 61 7 67 -9z m206 1 c0 -22 -22 -65 -33 -65 -6 0
-7 -3 -4 -7 8 -7 -11 -33 -23 -33 -5 0 6 25 23 57 l30 56 -32 -6 c-20 -4 -30
-3 -26 3 10 16 65 12 65 -5z m-5563 -17 c-3 -8 -6 -5 -6 6 -1 11 2 17 5 13 3
-3 4 -12 1 -19z m2225 -55 c2 -23 0 -39 -4 -37 -5 3 -7 29 -7 57 1 56 6 48 11
-20z m170 51 c-14 -25 -2 -64 18 -64 10 0 21 6 23 13 3 7 6 6 6 -5 1 -23 -15
-31 -45 -24 -21 6 -24 12 -24 51 0 34 4 45 15 45 12 0 14 -4 7 -16z m3509 -26
c-4 -35 -6 -38 -9 -15 -3 26 3 57 10 57 2 0 1 -19 -1 -42z m-1625 -5 c-11 -11
-17 4 -9 23 7 18 8 18 11 1 2 -10 1 -21 -2 -24z m-1846 17 c8 -5 11 -13 6 -17
-5 -4 -11 -2 -13 5 -3 6 -9 10 -14 6 -5 -3 -9 0 -9 5 0 13 10 14 30 1z m-1820
-10 c0 -5 -2 -10 -4 -10 -3 0 -8 5 -11 10 -3 6 -1 10 4 10 6 0 11 -4 11 -10z
m40 6 c0 -3 -4 -8 -10 -11 -5 -3 -10 -1 -10 4 0 6 5 11 10 11 6 0 10 -2 10 -4z
m-653 -43 c-3 -10 -5 -4 -5 12 0 17 2 24 5 18 2 -7 2 -21 0 -30z m4244 30
c-11 -5 -11 -7 0 -14 11 -7 10 -9 -4 -9 -10 0 -15 -4 -12 -10 3 -5 1 -10 -4
-10 -12 0 -14 11 -5 34 3 9 14 16 23 15 12 0 12 -2 2 -6z m36 -35 c-3 -8 -6
-5 -6 6 -1 11 2 17 5 13 3 -3 4 -12 1 -19z m223 -8 c0 -5 -4 -10 -10 -10 -5 0
-10 5 -10 10 0 6 5 10 10 10 6 0 10 -4 10 -10z m-2070 -132 c0 -24 -5 -50 -11
-58 -7 -11 -9 -3 -8 30 2 30 -1 44 -9 43 -6 -2 -9 4 -6 12 4 8 12 15 20 15 10
0 14 -13 14 -42z m389 -25 c-2 -70 -6 -63 -11 20 -2 26 0 47 4 47 5 0 7 -30 7
-67z m1059 55 c7 -7 12 -33 12 -60 0 -36 -4 -50 -18 -57 -31 -16 -62 13 -62
56 0 55 39 90 68 61z m191 -15 c-1 -17 -3 -21 -6 -10 -2 9 -10 17 -16 17 -7 0
-6 4 3 10 20 13 20 13 19 -17z m630 13 c16 -19 17 -82 1 -101 -15 -18 -41 -20
-58 -3 -19 19 -15 95 6 107 24 14 38 13 51 -3z m-2089 -6 c0 -5 -4 -10 -9 -10
-5 0 -8 -8 -7 -17 2 -10 -1 -20 -5 -23 -5 -3 -6 -16 -2 -28 4 -17 10 -21 27
-16 16 5 18 3 10 -6 -7 -6 -22 -10 -35 -8 -20 2 -25 10 -27 40 -2 20 2 46 8
58 11 20 40 28 40 10z m27 -5 c0 -8 -4 -15 -9 -15 -4 0 -8 7 -8 15 0 8 4 15 8
15 5 0 9 -7 9 -15z m617 0 c4 -10 -1 -15 -14 -15 -13 0 -18 5 -14 15 4 8 10
15 14 15 4 0 10 -7 14 -15z m1234 -32 l-1 -48 -4 42 c-3 32 -8 41 -19 36 -7
-3 -14 0 -14 6 0 6 9 11 20 11 17 0 20 -6 18 -47z m1259 -60 c15 -12 14 -13
-8 -13 -23 0 -24 2 -19 62 l5 63 3 -50 c2 -32 9 -55 19 -62z m-2717 17 c5 0
12 9 15 20 3 11 10 20 15 20 11 0 -15 -63 -28 -68 -12 -4 -52 89 -44 102 3 6
12 -9 20 -32 7 -23 17 -42 22 -42z m-2802 18 c3 -47 2 -48 -25 -48 -38 0 -53
16 -53 56 0 35 11 44 50 41 22 -2 25 -7 28 -49z m380 38 c-7 -8 -17 -12 -22
-9 -4 3 -2 9 5 14 22 13 31 11 17 -5z m2469 8 c-3 -3 -12 -4 -19 -1 -8 3 -5 6
6 6 11 1 17 -2 13 -5z m573 -4 c0 -5 -7 -10 -15 -10 -10 0 -15 -11 -15 -35 0
-24 5 -35 14 -35 20 0 30 19 28 52 -1 15 2 28 8 28 6 0 9 -19 8 -44 -3 -40 -5
-43 -33 -44 -16 0 -33 5 -37 11 -12 19 -9 75 5 80 21 9 37 7 37 -3z m1275 0
c4 -6 -3 -9 -16 -7 -16 1 -24 -5 -30 -25 -9 -33 10 -53 42 -43 14 5 19 4 15
-4 -9 -15 -49 -14 -64 1 -7 7 -12 22 -12 34 0 38 48 71 65 44z m-4915 -10 c0
-5 -2 -10 -4 -10 -3 0 -8 5 -11 10 -3 6 -1 10 4 10 6 0 11 -4 11 -10z m379
-39 c-6 -22 -15 -38 -20 -36 -4 3 -1 18 7 33 7 15 14 33 14 41 0 8 3 12 6 9 3
-3 0 -24 -7 -47z m1816 39 c-3 -5 -12 -10 -18 -10 -7 0 -6 4 3 10 19 12 23 12
15 0z m1197 -12 c-7 -7 -12 -8 -12 -2 0 14 12 26 19 19 2 -3 -1 -11 -7 -17z
m2158 0 c0 -5 -9 -4 -20 2 -11 6 -20 12 -20 14 0 2 9 2 20 -1 11 -3 20 -9 20
-15z m-5128 -13 c-2 -14 -9 -25 -14 -25 -6 0 -7 7 -4 16 3 9 6 20 6 25 0 5 4
9 9 9 4 0 6 -11 3 -25z m3846 -5 c-3 -39 -15 -39 -14 0 1 16 4 30 9 30 4 0 6
-13 5 -30z m1069 24 c-3 -3 -12 -4 -19 -1 -8 3 -5 6 6 6 11 1 17 -2 13 -5z
m-1877 -24 c0 -11 -6 -20 -14 -20 -9 0 -12 7 -9 20 3 11 9 20 14 20 5 0 9 -9
9 -20z m597 -2 c-3 -8 -6 -5 -6 6 -1 11 2 17 5 13 3 -3 4 -12 1 -19z m-3431
-34 c-30 -21 -45 -16 -16 6 14 10 27 16 30 13 3 -2 -4 -11 -14 -19z m4934 16
c0 -5 -2 -10 -4 -10 -3 0 -8 5 -11 10 -3 6 -1 10 4 10 6 0 11 -4 11 -10z
m-3336 -21 c-6 -11 -41 -12 -47 -1 -3 4 8 7 24 8 15 1 26 -3 23 -7z m2261 1
c3 -5 -1 -10 -10 -10 -9 0 -13 5 -10 10 3 6 8 10 10 10 2 0 7 -4 10 -10z
m-4292 -150 c7 0 5 -5 -5 -10 -10 -7 -14 -18 -11 -32 3 -13 3 -20 -1 -16 -4 3
-8 26 -8 50 0 60 4 79 9 41 2 -18 10 -33 16 -33z m431 -10 c1 -33 -2 -60 -6
-60 -5 0 -8 23 -8 50 0 30 -4 50 -11 50 -8 0 -7 5 1 15 19 22 23 12 24 -55z
m2376 60 c0 -5 -5 -10 -11 -10 -5 0 -7 5 -4 10 3 6 8 10 11 10 2 0 4 -4 4 -10z
m1060 0 c0 -5 -7 -10 -16 -10 -8 0 -12 5 -9 10 3 6 10 10 16 10 5 0 9 -4 9
-10z m636 -5 c11 -27 9 -108 -2 -112 -7 -2 -9 15 -6 53 4 50 3 56 -12 51 -10
-4 -16 -1 -16 8 0 19 29 19 36 0z m194 -50 c0 -64 0 -65 -27 -65 -23 0 -25 2
-11 13 21 16 32 101 12 93 -8 -3 -14 -1 -14 3 0 9 16 18 33 20 4 1 7 -28 7
-64z m864 49 c34 -33 13 -114 -29 -114 -47 0 -64 86 -23 114 28 20 33 20 52 0z
m-5539 -4 c3 -5 2 -10 -4 -10 -5 0 -13 5 -16 10 -3 6 -2 10 4 10 5 0 13 -4 16
-10z m2205 -10 c10 -19 5 -66 -9 -75 -4 -2 -7 15 -7 37 1 36 -2 43 -24 49
l-25 7 27 1 c18 1 31 -6 38 -19z m194 10 c-34 -13 -39 -30 -10 -30 14 0 26 -4
26 -8 0 -5 -8 -8 -17 -8 -20 1 -23 -4 -23 -34 0 -24 13 -26 34 -4 9 8 16 12
16 7 0 -15 -23 -33 -42 -33 -11 0 -20 12 -27 36 -13 48 3 84 38 83 25 0 25 -1
5 -9z m233 -5 c2 -6 -9 -11 -24 -10 -25 0 -28 -4 -31 -39 l-3 -39 38 6 c35 6
36 5 19 -8 -26 -19 -32 -19 -56 5 -24 24 -26 63 -4 85 18 17 55 17 61 0z
m2271 -42 c-2 -46 -7 -59 -20 -61 -10 -2 -18 2 -18 8 0 7 6 10 13 7 9 -3 12 7
11 41 -1 34 -7 48 -20 53 -15 6 -13 8 9 8 28 1 28 1 25 -56z m220 -3 c-1 -45
-2 -48 -5 -15 -6 65 -10 71 -35 49 -21 -19 -21 -19 -9 3 6 12 20 21 31 20 18
-1 20 -8 18 -57z m-4959 19 c17 -50 12 -58 -9 -15 -23 45 -23 46 -11 46 5 0
14 -14 20 -31z m2881 -22 c4 -31 2 -46 -5 -44 -5 3 -9 14 -8 26 2 15 -3 21
-16 21 -24 0 -35 -37 -12 -43 11 -3 9 -5 -6 -6 -14 -1 -23 5 -23 13 0 30 13
46 36 46 27 0 30 9 12 29 -11 11 -10 13 2 9 9 -3 17 -22 20 -51z m1014 3 c-7
-6 -24 22 -23 40 0 9 6 5 14 -10 7 -14 11 -27 9 -30z m-3834 30 c0 -5 -5 -10
-11 -10 -5 0 -7 5 -4 10 3 6 8 10 11 10 2 0 4 -4 4 -10z m3417 4 c-3 -3 -12
-4 -19 -1 -8 3 -5 6 6 6 11 1 17 -2 13 -5z m-3846 -31 c-12 -20 -14 -14 -5 12
4 9 9 14 11 11 3 -2 0 -13 -6 -23z m3439 7 c0 -5 -2 -10 -4 -10 -3 0 -8 5 -11
10 -3 6 -1 10 4 10 6 0 11 -4 11 -10z m179 0 c6 8 13 11 17 7 12 -11 -13 -30
-30 -24 -9 4 -16 12 -16 19 0 9 3 9 10 -2 9 -13 11 -13 19 0z m-3208 -33 c-5
-14 -15 -28 -22 -32 -12 -8 -12 -7 10 38 17 33 25 29 12 -6z m4066 11 c-3 -8
-6 -5 -6 6 -1 11 2 17 5 13 3 -3 4 -12 1 -19z m823 18 c0 -3 -4 -8 -10 -11 -5
-3 -10 -1 -10 4 0 6 5 11 10 11 6 0 10 -2 10 -4z m-643 -36 c-3 -21 -17 -40
-17 -22 0 13 11 42 16 42 2 0 3 -9 1 -20z m643 -11 c0 -5 -4 -9 -10 -9 -5 0
-10 7 -10 16 0 8 5 12 10 9 6 -3 10 -10 10 -16z m-1910 1 c0 -5 -4 -10 -10
-10 -5 0 -10 5 -10 10 0 6 5 10 10 10 6 0 10 -4 10 -10z m-990 -10 c12 -8 9
-10 -12 -10 -15 0 -30 5 -33 10 -8 13 25 13 45 0z m-2210 -155 c0 -30 -4 -55
-10 -55 -5 0 -10 25 -10 55 0 30 5 55 10 55 6 0 10 -25 10 -55z m2218 10 c-4
-28 -1 -46 6 -48 6 -2 8 -8 4 -12 -17 -18 -30 9 -24 51 4 35 2 43 -12 47 -12
3 -10 5 7 6 22 1 23 -2 19 -44z m3309 -37 c-2 -18 -4 -6 -4 27 0 33 2 48 4 33
2 -15 2 -42 0 -60z m-2111 40 c-2 -45 -26 -49 -26 -4 0 24 5 36 14 36 8 0 13
-11 12 -32z m46 3 c2 -17 1 -28 -3 -25 -4 2 -10 -1 -12 -6 -3 -6 -4 -5 -3 2 2
7 -1 23 -5 36 -6 16 -5 22 5 22 8 0 16 -13 18 -29z m-845 13 c-3 -3 -12 -4
-19 -1 -8 3 -5 6 6 6 11 1 17 -2 13 -5z m-2220 -36 c-3 -8 -6 -5 -6 6 -1 11 2
17 5 13 3 -3 4 -12 1 -19z m2223 12 c13 -8 13 -10 -2 -10 -9 0 -19 -6 -21 -12
-3 -7 -6 -3 -6 10 -1 24 6 27 29 12z m397 -22 c-3 -7 -5 -2 -5 12 0 14 2 19 5
13 2 -7 2 -19 0 -25z m-377 -8 c0 -5 -4 -10 -10 -10 -5 0 -10 5 -10 10 0 6 5
10 10 10 6 0 10 -4 10 -10z m360 -6 c0 -8 -5 -12 -10 -9 -6 4 -8 11 -5 16 9
14 15 11 15 -7z m40 -4 c0 -5 -8 -10 -17 -10 -15 0 -16 2 -3 10 19 12 20 12
20 0z m-2830 -10 c0 -5 -4 -10 -10 -10 -5 0 -10 5 -10 10 0 6 5 10 10 10 6 0
10 -4 10 -10z m3210 6 c0 -2 -7 -6 -15 -10 -8 -3 -15 -1 -15 4 0 6 7 10 15 10
8 0 15 -2 15 -4z m237 -2 c-3 -3 -12 -4 -19 -1 -8 3 -5 6 6 6 11 1 17 -2 13
-5z m-1437 -147 c0 -29 -5 -59 -11 -67 -9 -12 -10 -11 -6 6 2 11 1 42 -3 67
-7 48 -4 61 11 51 5 -3 9 -29 9 -57z m1212 -7 c2 -42 -1 -70 -7 -70 -6 0 -10
31 -11 70 -1 91 13 91 18 0z m-1420 15 c-2 -25 -8 -42 -13 -39 -5 3 -6 17 -3
32 14 66 20 69 16 7z m426 33 c25 -25 6 -118 -24 -118 -37 0 -66 70 -45 109
13 23 50 28 69 9z m418 -1 c4 -4 0 -23 -9 -42 -9 -20 -17 -45 -17 -55 0 -11
-7 -20 -14 -20 -12 0 -12 10 5 57 10 31 19 57 19 59 0 5 -46 -9 -57 -18 -8 -6
-10 -4 -6 10 3 14 13 18 38 17 19 0 37 -4 41 -8z m2478 -18 c3 -18 2 -37 -3
-43 -6 -7 -6 -18 -1 -26 10 -17 -5 -30 -35 -29 -19 0 -19 1 1 9 18 7 21 16 19
64 -1 61 9 75 19 25z m219 -86 c6 -10 -1 -13 -25 -12 -18 1 -25 3 -15 6 15 4
18 14 17 56 -2 74 2 81 9 17 3 -30 10 -61 14 -67z m-5553 93 c0 -2 -7 -7 -16
-10 -8 -3 -12 -2 -9 4 6 10 25 14 25 6z m200 -11 c0 -8 -4 -15 -9 -15 -13 0
-22 16 -14 24 11 11 23 6 23 -9z m3460 5 c0 -5 -2 -10 -4 -10 -3 0 -8 5 -11
10 -3 6 -1 10 4 10 6 0 11 -4 11 -10z m1470 0 c0 -5 -7 -10 -16 -10 -8 0 -12
5 -9 10 3 6 10 10 16 10 5 0 9 -4 9 -10z m-1290 -20 c0 -5 -7 -7 -15 -4 -8 4
-12 10 -9 15 6 11 24 2 24 -11z m-3417 -4 c6 -16 -1 -26 -19 -26 -7 0 -10 8
-7 20 6 23 19 26 26 6z m2212 4 c-3 -5 -10 -10 -16 -10 -5 0 -9 5 -9 10 0 6 7
10 16 10 8 0 12 -4 9 -10z m-2645 -20 c-8 -5 -19 -10 -25 -10 -5 0 -3 5 5 10
8 5 20 10 25 10 6 0 3 -5 -5 -10z m430 -35 c0 -8 -4 -15 -10 -15 -5 0 -10 7
-10 15 0 8 5 15 10 15 6 0 10 -7 10 -15z m1595 -23 c-8 -8 -25 10 -19 20 4 6
9 5 15 -3 4 -7 6 -15 4 -17z m-10 -82 c-3 -5 -14 -10 -23 -9 -14 0 -13 2 3 9
27 11 27 11 20 0z m215 -58 c4 -46 2 -62 -7 -62 -9 0 -13 18 -13 56 0 46 -3
55 -15 50 -8 -3 -15 -1 -15 3 0 11 21 20 35 17 6 -1 12 -30 15 -64z m209 50
c6 -10 7 -30 3 -43 -6 -23 -6 -23 -12 6 -7 38 -37 46 -45 13 -3 -13 -1 -36 4
-51 9 -24 14 -26 31 -17 12 6 25 21 30 33 5 14 9 16 9 7 1 -23 -28 -60 -46
-60 -26 0 -53 31 -53 59 0 57 57 94 79 53z m-2199 -11 c0 -4 -11 -6 -25 -3
-14 2 -25 6 -25 8 0 2 11 4 25 4 14 0 25 -4 25 -9z m2420 -45 c0 -44 -22 -63
-55 -48 -25 12 -30 28 -19 69 13 48 74 31 74 -21z m150 44 c0 -5 -5 -10 -11
-10 -5 0 -7 5 -4 10 3 6 8 10 11 10 2 0 4 -4 4 -10z m451 -7 c12 -15 12 -16
-4 -10 -10 4 -23 7 -28 7 -6 0 -7 5 -4 10 9 15 21 12 36 -7z m207 -38 l3 -50
-33 -2 -34 -3 -2 56 -2 55 32 -3 c32 -3 33 -5 36 -53z m204 35 c23 -50 -3
-101 -41 -80 -23 12 -29 68 -10 87 15 15 43 11 51 -7z m1855 0 c-1 -22 -17
-28 -17 -7 0 12 9 27 16 27 2 0 2 -9 1 -20z m193 11 c0 -5 -9 -7 -20 -4 -11 3
-20 7 -20 9 0 2 9 4 20 4 11 0 20 -4 20 -9z m-5300 -22 c0 -6 -4 -7 -10 -4 -5
3 -10 11 -10 16 0 6 5 7 10 4 6 -3 10 -11 10 -16z m1598 -20 c1 -22 4 -45 8
-50 3 -5 -2 -9 -10 -9 -12 0 -16 11 -16 50 0 60 16 68 18 9z m1188 2 c-5 -36
-4 -40 16 -44 20 -4 19 -4 -4 -6 -25 -1 -28 3 -28 28 0 31 9 61 17 61 3 0 3
-18 -1 -39z m-3220 -21 c1 -16 -2 -27 -7 -24 -14 8 -9 54 5 54 1 0 2 -13 2
-30z m244 21 c0 -5 -8 -8 -17 -7 -27 2 -21 -27 7 -35 22 -6 23 -7 4 -8 -27 -1
-46 21 -38 43 6 17 44 23 44 7z m2580 -7 c0 -8 -5 -12 -10 -9 -6 4 -8 11 -5
16 9 14 15 11 15 -7z m430 12 c0 -3 -4 -8 -10 -11 -5 -3 -10 -1 -10 4 0 6 5
11 10 11 6 0 10 -2 10 -4z m30 -26 c0 -16 -4 -30 -8 -30 -7 0 -9 43 -3 58 5
12 11 -4 11 -28z m1843 10 c-3 -12 -8 -19 -11 -16 -5 6 5 36 12 36 2 0 2 -9
-1 -20z m457 10 c0 -5 -5 -10 -11 -10 -5 0 -7 5 -4 10 3 6 8 10 11 10 2 0 4
-4 4 -10z m-5153 -22 c-3 -8 -6 -5 -6 6 -1 11 2 17 5 13 3 -3 4 -12 1 -19z
m4724 -21 c-10 -9 -11 -8 -5 6 3 10 9 15 12 12 3 -3 0 -11 -7 -18z m-2331 3
c0 -5 -4 -10 -10 -10 -5 0 -10 5 -10 10 0 6 5 10 10 10 6 0 10 -4 10 -10z
m2755 0 c-3 -5 -11 -10 -16 -10 -6 0 -7 5 -4 10 3 6 11 10 16 10 6 0 7 -4 4
-10z m-5534 -121 c14 -28 3 -86 -20 -98 -29 -16 -61 13 -61 54 0 58 57 89 81
44z m2606 -4 c2 -11 0 -14 -3 -7 -3 6 -15 12 -25 12 -12 0 -17 5 -14 11 11 16
40 6 42 -16z m174 -8 c-11 -27 -4 -67 13 -80 7 -5 3 -7 -9 -5 -16 3 -21 12
-23 46 -2 24 2 50 9 58 17 20 21 12 10 -19z m2533 27 c10 -4 16 -18 16 -41 0
-43 -16 -73 -38 -73 -15 1 -15 3 3 16 17 12 18 16 5 24 -12 8 -12 10 2 15 9 4
16 15 15 26 -1 21 -23 33 -32 19 -4 -6 -11 -10 -17 -10 -7 0 -6 6 2 15 14 17
21 18 44 9z m-5109 -15 c4 -6 4 -13 0 -17 -3 -3 -10 -1 -14 6 -16 26 -41 1
-41 -39 0 -41 8 -46 41 -29 21 12 26 -2 6 -18 -9 -8 -20 -7 -37 1 -28 14 -40
68 -19 93 13 16 55 19 64 3z m1800 1 c4 -6 -5 -10 -20 -10 -15 0 -24 4 -20 10
3 6 12 10 20 10 8 0 17 -4 20 -10z m191 -5 c11 -8 14 -15 6 -15 -14 0 -12 -61
3 -72 6 -4 -7 -8 -27 -8 -35 0 -57 14 -43 28 3 3 10 0 15 -8 15 -25 37 5 32
45 -5 39 -5 39 -33 25 -11 -7 -19 -7 -19 -1 0 9 16 19 36 20 5 1 19 -6 30 -14z
m628 9 c22 -8 22 -87 1 -104 -14 -11 -14 -10 -5 14 14 38 13 62 -6 80 -17 17
-14 19 10 10z m156 -45 c0 -21 -4 -39 -10 -39 -5 0 -10 21 -10 46 0 27 4 43
10 39 6 -3 10 -24 10 -46z m464 20 c14 -40 0 -79 -27 -79 -31 0 -47 18 -47 51
0 45 10 60 39 57 17 -2 29 -11 35 -29z m173 15 c3 -8 1 -34 -5 -57 l-11 -42 3
53 c2 41 0 52 -11 48 -7 -3 -13 -1 -13 4 0 16 30 11 37 -6z m2059 -3 c-17 -19
-14 -71 5 -71 5 0 9 -7 9 -15 0 -13 -3 -13 -20 -3 -32 20 -26 108 8 108 13 0
13 -3 -2 -19z m-3279 -7 c-3 -3 -12 -4 -19 -1 -8 3 -5 6 6 6 11 1 17 -2 13 -5z
m213 -54 c0 -30 -4 -40 -16 -40 -9 0 -12 5 -8 12 5 7 7 25 6 40 -1 15 2 28 8
28 5 0 10 -18 10 -40z m400 -20 c0 -5 -5 -10 -11 -10 -5 0 -7 5 -4 10 3 6 8
10 11 10 2 0 4 -4 4 -10z m-2608 -182 c2 -34 -1 -48 -9 -48 -14 0 -18 68 -6
110 9 28 10 23 15 -62z m-220 0 c3 -42 1 -48 -17 -48 -15 0 -17 2 -6 9 10 6
12 22 9 55 -3 25 -3 48 1 52 7 7 9 -3 13 -68z m4932 25 c-9 -65 -14 -67 -14
-5 0 30 4 52 11 52 7 0 8 -16 3 -47z m-4526 30 c-1 -5 3 -18 10 -30 8 -14 9
-23 3 -23 -11 0 -31 32 -31 49 0 6 5 11 10 11 6 0 9 -3 8 -7z m4943 -2 c3 -1
6 -7 6 -15 0 -18 -34 -39 -42 -26 -3 6 1 10 9 10 9 0 16 5 16 10 0 6 -7 10
-15 10 -8 0 -15 4 -15 9 0 5 8 8 18 6 9 -2 20 -4 23 -4z m-4702 -10 c12 -8 12
-16 3 -43 -8 -23 -10 -25 -7 -7 5 30 -16 55 -40 45 -8 -3 -15 -1 -15 4 0 12
40 13 59 1z m-19 -35 c0 -8 -4 -17 -9 -21 -12 -7 -24 12 -16 25 9 15 25 12 25
-4z m3877 -2 c-3 -3 -12 -4 -19 -1 -8 3 -5 6 6 6 11 1 17 -2 13 -5z m813 -40
c0 -8 -4 -14 -9 -14 -11 0 -22 26 -14 34 9 9 23 -3 23 -20z m38 -5 c-3 -8 -7
-3 -11 10 -4 17 -3 21 5 13 5 -5 8 -16 6 -23z m-4918 0 c0 -5 -7 -9 -15 -9 -9
0 -12 6 -9 15 6 15 24 11 24 -6z m-45 1 c3 -5 1 -10 -4 -10 -6 0 -11 5 -11 10
0 6 2 10 4 10 3 0 8 -4 11 -10z m254 -4 c-11 -9 -69 -15 -64 -6 3 6 20 10 37
10 17 0 29 -2 27 -4z m4288 -2 c-3 -3 -12 -4 -19 -1 -8 3 -5 6 6 6 11 1 17 -2
13 -5z m-5133 -90 c9 -3 16 -17 16 -30 0 -30 -18 -32 -22 -1 -2 15 -9 21 -20
19 -10 -2 -18 2 -18 8 0 11 20 13 44 4z m195 -11 c-1 -10 -5 -31 -9 -48 -8
-30 -8 -30 -9 8 -1 28 -5 37 -18 38 -15 0 -15 2 2 9 30 13 35 12 34 -7z m221
-44 c0 -38 -4 -58 -10 -54 -12 8 -11 115 2 115 4 0 8 -27 8 -61z m4728 22 c4
-41 -5 -81 -18 -81 -6 0 -6 9 -2 23 5 12 8 29 7 37 -1 8 -3 23 -3 33 -1 10
-10 17 -23 17 -19 0 -21 -5 -17 -55 2 -32 -1 -55 -7 -55 -11 0 -11 92 0 110 4
6 19 10 33 8 23 -2 28 -9 30 -37z m416 24 c5 -13 2 -14 -15 -5 -22 12 -52 -3
-47 -24 2 -6 -2 -12 -7 -13 -12 -2 -7 27 7 45 14 17 55 15 62 -3z m-4924 -15
c0 -5 -2 -10 -4 -10 -3 0 -8 5 -11 10 -3 6 -1 10 4 10 6 0 11 -4 11 -10z
m4083 -7 c22 -12 2 -20 -28 -10 -41 12 -48 30 -7 21 15 -4 30 -9 35 -11z m587
7 c0 -5 -2 -10 -4 -10 -3 0 -8 5 -11 10 -3 6 -1 10 4 10 6 0 11 -4 11 -10z
m45 -9 c3 -5 1 -12 -4 -15 -5 -3 -11 1 -15 9 -6 16 9 21 19 6z m342 -16 c-7
-13 -14 -20 -15 -14 -5 14 6 39 17 39 5 0 4 -11 -2 -25z m-792 5 c3 -5 1 -10
-4 -10 -6 0 -11 5 -11 10 0 6 2 10 4 10 3 0 8 -4 11 -10z m-4285 -10 c0 -5 -5
-10 -11 -10 -5 0 -7 5 -4 10 3 6 8 10 11 10 2 0 4 -4 4 -10z m233 3 c-13 -2
-35 -2 -50 0 -16 2 -5 4 22 4 28 0 40 -2 28 -4z m3819 -23 c-3 -24 -1 -30 15
-30 10 0 25 6 32 13 11 10 13 9 9 -3 -3 -8 -19 -16 -36 -18 -31 -3 -32 -2 -32
32 0 20 4 36 8 36 5 0 7 -13 4 -30z m638 20 c0 -5 -5 -10 -11 -10 -5 0 -7 5
-4 10 3 6 8 10 11 10 2 0 4 -4 4 -10z m-600 -20 c0 -5 -8 -10 -17 -10 -15 0
-16 2 -3 10 19 12 20 12 20 0z m798 -20 c7 -11 11 -20 9 -20 -2 0 -12 9 -22
20 -10 11 -14 20 -9 20 5 0 15 -9 22 -20z m-5534 -1 c-4 -7 0 -9 14 -5 11 4
23 2 27 -4 4 -6 -8 -10 -31 -10 -31 0 -35 2 -24 15 14 17 24 20 14 4z m4926 7
c0 -3 -4 -8 -10 -11 -5 -3 -10 -1 -10 4 0 6 5 11 10 11 6 0 10 -2 10 -4z m450
-11 c10 -13 9 -15 -8 -15 -15 0 -20 5 -16 15 4 8 7 15 9 15 1 0 8 -7 15 -15z
m-5150 -5 c0 -5 -4 -10 -10 -10 -5 0 -10 5 -10 10 0 6 5 10 10 10 6 0 10 -4
10 -10z m5365 0 c-3 -5 -14 -10 -23 -10 -15 0 -15 2 -2 10 20 13 33 13 25 0z
m145 0 c0 -5 -2 -10 -4 -10 -3 0 -8 5 -11 10 -3 6 -1 10 4 10 6 0 11 -4 11
-10z m-5498 -146 c-2 -10 -7 -21 -11 -24 -5 -3 -11 -17 -15 -32 -4 -17 -13
-28 -24 -28 -11 0 -13 3 -5 8 6 4 15 21 19 37 4 17 11 36 17 43 7 9 1 12 -24
12 -23 0 -30 3 -20 9 23 14 67 -3 63 -25z m219 19 c2 -26 -2 -47 -10 -55 -4
-4 -7 5 -6 20 0 21 -5 28 -25 31 l-25 4 25 8 c38 11 40 10 41 -8z m4297 -52
c-3 -45 -4 -46 -38 -46 -34 0 -35 1 -37 42 -3 54 17 77 53 61 22 -10 25 -17
22 -57z m836 41 c8 -16 13 -37 11 -48 -2 -10 -4 -22 -4 -27 -1 -4 -13 -12 -27
-18 -35 -13 -64 12 -64 54 0 62 58 89 84 39z m-5574 14 c0 -2 -7 -9 -15 -16
-12 -10 -15 -10 -15 4 0 9 7 16 15 16 8 0 15 -2 15 -4z m830 -10 c0 -2 -9 -6
-20 -9 -11 -3 -18 -1 -14 4 5 9 34 13 34 5z m40 -6 c0 -5 -2 -10 -4 -10 -3 0
-8 5 -11 10 -3 6 -1 10 4 10 6 0 11 -4 11 -10z m4477 -50 c1 -16 -2 -32 -7
-35 -6 -4 -10 9 -10 29 0 43 14 48 17 6z m-4902 -32 c6 -4 -6 -7 -25 -7 -19 1
-27 3 -17 6 9 2 17 9 17 15 0 7 3 7 8 2 4 -5 12 -12 17 -16z m390 2 c3 -6 -4
-10 -17 -10 -18 0 -20 2 -8 10 19 12 18 12 25 0z m30 0 c3 -5 1 -10 -4 -10 -6
0 -11 5 -11 10 0 6 2 10 4 10 3 0 8 -4 11 -10z m195 -155 c0 -45 -4 -75 -10
-75 -7 0 -10 28 -8 75 1 41 6 75 10 75 4 0 8 -34 8 -75z m4267 -42 c-2 -21 -4
-6 -4 32 0 39 2 55 4 38 2 -18 2 -50 0 -70z m-4468 73 c7 -8 11 -34 9 -58 -3
-40 -5 -43 -36 -46 -27 -3 -34 1 -43 24 -14 37 -4 73 24 84 30 12 33 12 46 -4z
m4691 -46 c0 -33 -4 -60 -9 -60 -9 0 -14 98 -5 112 11 17 14 6 14 -52z m-615
39 c4 -6 -2 -19 -14 -30 -30 -28 -38 -23 -10 7 l24 27 -32 -5 c-18 -2 -33 -1
-33 4 0 12 58 10 65 -3z m-4277 -11 c-5 -14 -58 -19 -58 -7 0 7 15 11 53 18 5
0 7 -5 5 -11z m4454 -20 c11 -23 17 -28 21 -18 3 8 8 23 11 33 3 10 10 15 16
12 6 -4 4 -17 -5 -35 -8 -16 -15 -36 -15 -45 0 -18 -26 -20 -36 -3 -4 7 -3 8
4 4 19 -11 14 9 -8 37 -21 26 -26 47 -12 47 5 0 15 -15 24 -32z m-4927 -48 c3
-5 1 -10 -4 -10 -6 0 -11 5 -11 10 0 6 2 10 4 10 3 0 8 -4 11 -10z m4705 0 c0
-14 37 -12 43 3 4 7 6 6 6 -4 1 -18 -23 -27 -51 -21 -19 4 -25 32 -8 32 6 0
10 -4 10 -10z m-4222 -162 c4 -48 -12 -78 -42 -78 -32 0 -48 22 -48 65 0 49
15 64 55 56 28 -6 32 -11 35 -43z m-448 25 c0 -10 -4 -14 -8 -8 -4 6 -11 13
-16 18 -5 4 -2 7 7 7 10 0 17 -8 17 -17z m238 -15 c3 -22 -1 -28 -15 -28 -15
0 -16 2 -3 10 13 8 13 11 -2 26 -23 23 -44 5 -43 -37 0 -38 30 -63 45 -39 8
13 10 12 10 -2 0 -26 -45 -23 -64 3 -8 12 -13 26 -11 33 2 6 6 24 10 39 5 25
10 28 38 25 27 -2 33 -8 35 -30z m590 -20 c-2 -35 1 -53 10 -55 7 -3 12 5 12
21 0 36 17 33 18 -4 1 -26 -3 -30 -28 -30 -19 0 -29 6 -33 19 -3 11 -2 23 1
26 4 3 5 22 3 41 -1 21 2 34 9 34 8 0 11 -17 8 -52z m44 27 c-2 -14 -8 -25
-13 -25 -5 0 -9 11 -9 25 0 14 6 25 14 25 9 0 12 -8 8 -25z m1743 -4 c-3 -12
-10 -21 -15 -21 -4 0 -3 11 3 24 14 29 22 27 12 -3z m607 -39 c3 -32 1 -51 -5
-49 -5 1 -10 28 -11 59 -1 70 10 63 16 -10z m624 22 c-5 -38 -3 -49 11 -60 17
-12 16 -13 -7 -14 -24 0 -25 2 -22 50 3 41 1 50 -13 50 -9 0 -13 5 -10 10 3 6
16 10 27 10 19 0 20 -4 14 -46z m674 27 c17 -32 12 -76 -11 -97 -23 -21 -25
-20 -51 3 -21 19 -24 83 -6 101 18 18 56 14 68 -7z m192 -41 c1 -33 0 -60 -4
-60 -5 0 -9 15 -10 33 -2 51 -3 53 -17 71 -12 14 -11 16 7 16 18 0 21 -7 24
-60z m212 44 c21 -20 21 -88 1 -104 -18 -15 -64 1 -66 22 0 7 -2 23 -3 36 -3
26 19 62 39 62 7 0 21 -7 29 -16z m-2704 -4 c0 -5 -2 -10 -4 -10 -3 0 -8 5
-11 10 -3 6 -1 10 4 10 6 0 11 -4 11 -10z m585 0 c-3 -5 -12 -10 -18 -10 -7 0
-6 4 3 10 19 12 23 12 15 0z m1235 6 c0 -2 -7 -9 -15 -16 -13 -11 -14 -10 -9
4 5 14 24 23 24 12z m-2258 -31 c-2 -14 -8 -25 -12 -25 -5 0 -7 8 -5 18 2 9 4
20 4 25 1 4 5 7 10 7 4 0 6 -11 3 -25z m1058 15 c0 -5 -2 -10 -4 -10 -3 0 -8
5 -11 10 -3 6 -1 10 4 10 6 0 11 -4 11 -10z m-2191 -12 c0 -7 -4 -22 -9 -33
-6 -16 -8 -14 -7 13 0 17 4 32 9 32 4 0 8 -6 7 -12z m1336 -4 c-9 -10 -14 -25
-12 -35 3 -11 1 -19 -4 -19 -5 0 -9 7 -9 16 0 21 19 54 31 54 6 0 3 -7 -6 -16z
m-1979 -72 c-12 -11 -15 5 -8 44 l7 39 3 -39 c2 -21 1 -41 -2 -44z m1169 68
c3 -5 1 -10 -4 -10 -6 0 -11 -9 -11 -21 0 -14 5 -19 15 -16 8 4 17 2 20 -3 4
-6 -5 -10 -19 -10 -22 0 -26 5 -26 29 0 20 -6 31 -17 34 -12 3 -8 5 9 6 15 0
30 -3 33 -9z m395 0 c0 -5 -2 -10 -4 -10 -3 0 -8 5 -11 10 -3 6 -1 10 4 10 6
0 11 -4 11 -10z m457 -32 c-3 -8 -6 -5 -6 6 -1 11 2 17 5 13 3 -3 4 -12 1 -19z
m1620 16 c-3 -3 -12 -4 -19 -1 -8 3 -5 6 6 6 11 1 17 -2 13 -5z m-2052 -33
c-3 -6 -11 -11 -16 -11 -5 0 -4 6 3 14 14 16 24 13 13 -3z m182 -18 c-3 -10
-5 -4 -5 12 0 17 2 24 5 18 2 -7 2 -21 0 -30z m400 5 c-3 -8 -6 -5 -6 6 -1 11
2 17 5 13 3 -3 4 -12 1 -19z m643 2 c-24 -15 -37 -11 -16 5 11 8 22 12 25 9 3
-3 -1 -9 -9 -14z m-420 -177 c0 -42 -2 -74 -4 -72 -9 8 -13 149 -5 149 5 0 9
-34 9 -77z m-1750 38 c14 -28 12 -74 -4 -97 -14 -18 -17 -18 -43 -4 -22 12
-29 24 -31 55 -3 29 1 43 14 52 26 19 52 16 64 -6z m211 -14 c-6 -6 -11 -20
-11 -31 0 -12 -10 -32 -21 -46 -23 -28 -22 -20 12 59 13 30 25 49 27 42 2 -7
-1 -18 -7 -24z m347 24 c18 -11 25 -62 13 -93 -20 -53 -93 -21 -87 37 2 17 4
38 5 48 1 18 45 24 69 8z m416 -7 c21 -20 20 -24 -4 -24 -13 0 -17 5 -14 14 4
11 0 13 -15 9 -12 -3 -24 -16 -27 -29 -3 -13 -10 -24 -16 -24 -10 0 -1 38 14
58 14 17 43 15 62 -4z m160 1 c3 -9 0 -15 -9 -15 -8 0 -15 7 -15 15 0 8 4 15
9 15 5 0 11 -7 15 -15z m246 -5 c24 -24 26 -57 4 -88 -20 -29 -48 -28 -68 3
-44 66 10 139 64 85z m190 1 c17 -33 10 -111 -9 -111 -4 0 -6 24 -3 54 4 55
-9 79 -31 57 -14 -14 -10 -83 6 -94 8 -5 5 -7 -8 -5 -28 4 -35 86 -9 105 25
18 42 16 54 -6z m1632 -46 c2 -54 0 -65 -13 -65 -13 0 -15 10 -11 55 2 31 1
55 -4 54 -5 -1 -16 -1 -24 0 -13 1 -13 2 0 11 37 24 48 13 52 -55z m224 57
c18 -11 26 -66 15 -95 -11 -29 -47 -37 -69 -15 -19 19 -15 95 6 107 20 12 33
13 48 3z m213 -33 c-5 -10 -12 -19 -15 -19 -2 0 0 10 7 21 10 20 9 21 -20 17
-37 -5 -40 -1 -8 11 30 12 50 -5 36 -30z m429 29 c7 -7 12 -30 12 -53 0 -63
-28 -82 -68 -46 -27 23 -30 78 -4 97 21 17 44 18 60 2z m377 -20 c-3 -11 -7
-23 -9 -26 -9 -8 -19 27 -12 44 8 22 26 8 21 -18z m-4675 15 c-14 -3 -31 -10
-37 -15 -10 -8 -13 -6 -13 6 0 12 9 16 38 15 27 -1 30 -3 12 -6z m2819 -46 c0
-47 -3 -53 -22 -54 -15 -2 -18 0 -8 6 7 5 15 27 16 50 3 40 3 41 -23 35 -21
-4 -24 -3 -12 5 35 25 49 14 49 -42z m1679 28 c-3 -3 -9 2 -12 12 -6 14 -5 15
5 6 7 -7 10 -15 7 -18z m-4935 -15 c-3 -12 -8 -19 -11 -16 -5 6 5 36 12 36 2
0 2 -9 -1 -20z m194 -2 c-3 -8 -6 -5 -6 6 -1 11 2 17 5 13 3 -3 4 -12 1 -19z
m2443 12 c0 -5 -5 -10 -11 -10 -5 0 -7 5 -4 10 3 6 8 10 11 10 2 0 4 -4 4 -10z
m173 -10 c3 -12 0 -20 -8 -20 -8 0 -11 8 -8 20 3 11 7 20 8 20 1 0 5 -9 8 -20z
m-973 -30 c0 -38 -2 -40 -29 -40 -35 0 -45 12 -37 46 9 33 25 31 23 -3 -1 -19
3 -28 13 -28 11 0 15 10 14 33 -1 17 2 32 7 32 5 0 9 -18 9 -40z m1795 20 c3
-5 -1 -10 -10 -10 -9 0 -13 5 -10 10 3 6 8 10 10 10 2 0 7 -4 10 -10z m45 0
c0 -5 -7 -10 -16 -10 -8 0 -12 5 -9 10 3 6 10 10 16 10 5 0 9 -4 9 -10z m1257
4 c-3 -3 -12 -4 -19 -1 -8 3 -5 6 6 6 11 1 17 -2 13 -5z m-1717 -14 c0 -5 -5
-10 -11 -10 -5 0 -7 5 -4 10 3 6 8 10 11 10 2 0 4 -4 4 -10z m197 -12 c-3 -8
-6 -5 -6 6 -1 11 2 17 5 13 3 -3 4 -12 1 -19z m-782 2 c3 -5 -1 -10 -9 -10 -9
0 -16 5 -16 10 0 6 4 10 9 10 6 0 13 -4 16 -10z m1648 -6 c-3 -9 0 -19 6 -24
9 -5 4 -9 -13 -12 -30 -6 -33 7 -9 34 20 22 24 23 16 2z m-2853 -14 c6 -11 7
-20 2 -20 -6 0 -12 9 -15 20 -3 11 -3 20 -1 20 2 0 8 -9 14 -20z m170 -12 c0
-6 -7 -5 -15 2 -8 7 -15 17 -15 22 0 6 7 5 15 -2 8 -7 15 -17 15 -22z m36 -4
c-11 -7 -22 -11 -25 -8 -3 3 3 12 13 20 11 7 22 11 25 8 3 -3 -3 -12 -13 -20z
m-1166 12 c0 -2 -16 -6 -35 -8 -19 -2 -35 0 -35 4 0 4 16 8 35 8 19 0 35 -2
35 -4z m2740 -6 c0 -5 -5 -10 -11 -10 -5 0 -7 5 -4 10 3 6 8 10 11 10 2 0 4
-4 4 -10z m280 -7 c0 -10 -4 -14 -8 -8 -4 6 -11 13 -16 18 -5 4 -2 7 7 7 10 0
17 -8 17 -17z m-50 -3 c8 -5 11 -10 5 -10 -5 0 -17 5 -25 10 -8 5 -10 10 -5
10 6 0 17 -5 25 -10z m-2250 -141 c0 -37 -4 -58 -10 -54 -18 11 -12 115 7 115
2 0 3 -27 3 -61z m411 18 c-8 -8 -11 -3 -11 19 1 25 2 27 11 11 8 -14 8 -22 0
-30z m1246 -12 c-1 -68 -17 -74 -17 -7 0 42 5 62 16 62 1 0 2 -25 1 -55z
m-643 30 c-4 -8 -10 -15 -14 -15 -4 0 -10 7 -14 15 -4 10 1 15 14 15 13 0 18
-5 14 -15z m256 -37 c0 -58 -13 -58 -14 0 -1 30 -5 37 -21 37 -17 0 -20 -7
-20 -43 0 -23 -3 -42 -7 -42 -5 0 -8 23 -8 50 l0 50 35 0 35 0 0 -52z m-1560
10 c0 -19 -16 -5 -17 14 -2 18 0 20 7 8 5 -8 10 -18 10 -22z m2575 22 c-3 -5
-1 -10 4 -10 6 0 10 -17 9 -37 -1 -36 -1 -37 -5 -6 -5 35 -33 67 -40 46 -5
-15 -33 -18 -33 -4 0 10 22 18 53 20 10 0 15 -3 12 -9z m622 4 c-3 -3 -12 -4
-19 -1 -8 3 -5 6 6 6 11 1 17 -2 13 -5z m-1895 -59 c-5 -41 -19 -40 -16 2 3
35 2 33 12 33 4 0 6 -16 4 -35z m808 20 c0 -8 -2 -15 -4 -15 -2 0 -6 7 -10 15
-3 8 -1 15 4 15 6 0 10 -7 10 -15z m643 -5 c-3 -11 -13 -20 -22 -20 -14 0 -14
2 -1 10 11 7 11 10 2 10 -7 0 -10 5 -7 10 12 19 33 11 28 -10z m-1830 -7 c-7
-2 -19 -2 -25 0 -7 3 -2 5 12 5 14 0 19 -2 13 -5z m1610 -13 c-9 -11 -19 -17
-21 -15 -6 6 18 35 29 35 5 0 1 -9 -8 -20z m664 -12 c-3 -7 -5 -2 -5 12 0 14
2 19 5 13 2 -7 2 -19 0 -25z m-250 16 c-3 -3 -12 -4 -19 -1 -8 3 -5 6 6 6 11
1 17 -2 13 -5z m190 -26 c-3 -7 -5 -2 -5 12 0 14 2 19 5 13 2 -7 2 -19 0 -25z"/>
<path d="M3730 8036 c0 -17 5 -26 16 -26 10 0 14 7 12 22 -5 32 -28 35 -28 4z"/>
<path d="M5402 8088 c-7 -7 -12 -27 -12 -46 0 -29 3 -33 22 -30 25 3 33 26 24
64 -7 27 -16 30 -34 12z"/>
<path d="M2987 7883 c-9 -8 -9 -56 -1 -77 15 -38 54 -3 54 47 0 29 -35 49 -53
30z"/>
<path d="M4580 7861 c0 -16 6 -21 26 -21 33 0 30 33 -4 38 -17 3 -22 -2 -22
-17z"/>
<path d="M3425 7821 c-8 -15 3 -31 21 -31 9 0 14 7 12 17 -4 20 -24 28 -33 14z"/>
<path d="M2368 7659 c-24 -13 -25 -77 -2 -86 23 -9 46 26 39 57 -9 34 -17 40
-37 29z"/>
<path d="M2984 7646 c-3 -8 -4 -27 -2 -43 2 -22 8 -28 28 -28 20 0 26 6 28 28
5 45 -40 80 -54 43z"/>
<path d="M4483 7550 c0 -47 2 -66 4 -42 2 23 2 61 0 85 -2 23 -4 4 -4 -43z"/>
<path d="M4063 7545 c0 -44 2 -61 4 -37 2 23 2 59 0 80 -2 20 -4 1 -4 -43z"/>
<path d="M4693 7560 c0 -36 2 -50 4 -32 2 17 2 47 0 65 -2 17 -4 3 -4 -33z"/>
<path d="M5093 7550 c0 -41 2 -58 4 -37 2 20 2 54 0 75 -2 20 -4 3 -4 -38z"/>
<path d="M5913 7545 c0 -44 2 -61 4 -37 2 23 2 59 0 80 -2 20 -4 1 -4 -43z"/>
<path d="M4903 7535 c0 -38 2 -53 4 -32 2 20 2 52 0 70 -2 17 -4 1 -4 -38z"/>
<path d="M6311 7554 c0 -11 3 -14 6 -6 3 7 2 16 -1 19 -3 4 -6 -2 -5 -13z"/>
<path d="M3851 7544 c0 -11 3 -14 6 -6 3 7 2 16 -1 19 -3 4 -6 -2 -5 -13z"/>
<path d="M3728 7453 c29 -2 74 -2 100 0 26 2 2 3 -53 3 -55 0 -76 -1 -47 -3z"/>
<path d="M3973 7453 c54 -2 139 -2 190 0 51 1 7 3 -98 3 -104 0 -146 -2 -92
-3z"/>
<path d="M4318 7453 c34 -2 88 -2 120 0 31 2 3 3 -63 3 -66 0 -92 -1 -57 -3z"/>
<path d="M4543 7453 c26 -2 68 -2 95 0 26 2 4 3 -48 3 -52 0 -74 -1 -47 -3z"/>
<path d="M4753 7453 c26 -2 67 -2 90 0 23 2 2 3 -48 3 -49 0 -68 -1 -42 -3z"/>
<path d="M4963 7453 c26 -2 68 -2 95 0 26 2 4 3 -48 3 -52 0 -74 -1 -47 -3z"/>
<path d="M5208 7453 c57 -2 147 -2 200 0 53 1 7 3 -103 3 -110 0 -154 -2 -97
-3z"/>
<path d="M5558 7453 c29 -2 74 -2 100 0 26 2 2 3 -53 3 -55 0 -76 -1 -47 -3z"/>
<path d="M5778 7453 c29 -2 74 -2 100 0 26 2 2 3 -53 3 -55 0 -76 -1 -47 -3z"/>
<path d="M5973 7453 c26 -2 67 -2 90 0 23 2 2 3 -48 3 -49 0 -68 -1 -42 -3z"/>
<path d="M6163 7453 c32 -2 81 -2 110 0 29 2 3 3 -58 3 -60 0 -84 -1 -52 -3z"/>
<path d="M6373 7453 c26 -2 67 -2 90 0 23 2 2 3 -48 3 -49 0 -68 -1 -42 -3z"/>
<path d="M6573 7453 c26 -2 67 -2 90 0 23 2 2 3 -48 3 -49 0 -68 -1 -42 -3z"/>
<path d="M4063 7400 c0 -25 2 -35 4 -22 2 12 2 32 0 45 -2 12 -4 2 -4 -23z"/>
<path d="M4483 7360 c0 -47 2 -66 4 -42 2 23 2 61 0 85 -2 23 -4 4 -4 -43z"/>
<path d="M4903 7360 c0 -47 2 -66 4 -42 2 23 2 61 0 85 -2 23 -4 4 -4 -43z"/>
<path d="M5094 7355 c0 -49 1 -71 3 -48 2 23 2 64 0 90 -2 26 -3 8 -3 -42z"/>
<path d="M5914 7355 c0 -49 1 -71 3 -48 2 23 2 64 0 90 -2 26 -3 8 -3 -42z"/>
<path d="M4693 7335 c0 -38 2 -53 4 -32 2 20 2 52 0 70 -2 17 -4 1 -4 -38z"/>
<path d="M3853 7320 c0 -25 2 -35 4 -22 2 12 2 32 0 45 -2 12 -4 2 -4 -23z"/>
<path d="M6722 7240 c0 -19 2 -27 5 -17 2 9 2 25 0 35 -3 9 -5 1 -5 -18z"/>
<path d="M4763 7243 c9 -2 23 -2 30 0 6 3 -1 5 -18 5 -16 0 -22 -2 -12 -5z"/>
<path d="M5094 7135 c0 -49 1 -71 3 -48 2 23 2 64 0 90 -2 26 -3 8 -3 -42z"/>
<path d="M5913 7130 c0 -47 2 -66 4 -42 2 23 2 61 0 85 -2 23 -4 4 -4 -43z"/>
<path d="M3633 7160 c0 -25 2 -35 4 -22 2 12 2 32 0 45 -2 12 -4 2 -4 -23z"/>
<path d="M4483 7125 c0 -44 2 -61 4 -37 2 23 2 59 0 80 -2 20 -4 1 -4 -43z"/>
<path d="M4693 7125 c0 -44 2 -61 4 -37 2 23 2 59 0 80 -2 20 -4 1 -4 -43z"/>
<path d="M4903 7125 c0 -44 2 -61 4 -37 2 23 2 59 0 80 -2 20 -4 1 -4 -43z"/>
<path d="M6723 7125 c0 -44 2 -61 4 -37 2 23 2 59 0 80 -2 20 -4 1 -4 -43z"/>
<path d="M4061 7144 c0 -11 3 -14 6 -6 3 7 2 16 -1 19 -3 4 -6 -2 -5 -13z"/>
<path d="M4063 7085 c0 -22 2 -30 4 -17 2 12 2 30 0 40 -3 9 -5 -1 -4 -23z"/>
<path d="M3478 7033 c23 -2 59 -2 80 0 20 2 1 4 -43 4 -44 0 -61 -2 -37 -4z"/>
<path d="M3778 7033 c12 -2 32 -2 45 0 12 2 2 4 -23 4 -25 0 -35 -2 -22 -4z"/>
<path d="M3938 7033 c12 -2 32 -2 45 0 12 2 2 4 -23 4 -25 0 -35 -2 -22 -4z"/>
<path d="M4118 7033 c23 -2 61 -2 85 0 23 2 4 4 -43 4 -47 0 -66 -2 -42 -4z"/>
<path d="M4338 7033 c12 -2 32 -2 45 0 12 2 2 4 -23 4 -25 0 -35 -2 -22 -4z"/>
<path d="M4423 7033 c9 -2 25 -2 35 0 9 3 1 5 -18 5 -19 0 -27 -2 -17 -5z"/>
<path d="M4533 7033 c20 -2 54 -2 75 0 20 2 3 4 -38 4 -41 0 -58 -2 -37 -4z"/>
<path d="M4753 7033 c26 -2 68 -2 95 0 26 2 4 3 -48 3 -52 0 -74 -1 -47 -3z"/>
<path d="M4978 7033 c12 -2 32 -2 45 0 12 2 2 4 -23 4 -25 0 -35 -2 -22 -4z"/>
<path d="M5148 7033 c23 -2 61 -2 85 0 23 2 4 4 -43 4 -47 0 -66 -2 -42 -4z"/>
<path d="M5378 7033 c12 -2 32 -2 45 0 12 2 2 4 -23 4 -25 0 -35 -2 -22 -4z"/>
<path d="M5563 7033 c26 -2 67 -2 90 0 23 2 2 3 -48 3 -49 0 -68 -1 -42 -3z"/>
<path d="M5773 7033 c26 -2 67 -2 90 0 23 2 2 3 -48 3 -49 0 -68 -1 -42 -3z"/>
<path d="M5968 7033 c23 -2 59 -2 80 0 20 2 1 4 -43 4 -44 0 -61 -2 -37 -4z"/>
<path d="M6178 7033 c23 -2 61 -2 85 0 23 2 4 4 -43 4 -47 0 -66 -2 -42 -4z"/>
<path d="M6368 7033 c23 -2 59 -2 80 0 20 2 1 4 -43 4 -44 0 -61 -2 -37 -4z"/>
<path d="M6598 7033 c23 -2 59 -2 80 0 20 2 1 4 -43 4 -44 0 -61 -2 -37 -4z"/>
<path d="M6724 6945 c0 -55 1 -76 3 -47 2 29 2 74 0 100 -2 26 -3 2 -3 -53z"/>
<path d="M6793 7033 c32 -2 81 -2 110 0 29 2 3 3 -58 3 -60 0 -84 -1 -52 -3z"/>
<path d="M4483 6940 c0 -47 2 -66 4 -42 2 23 2 61 0 85 -2 23 -4 4 -4 -43z"/>
<path d="M4903 6950 c0 -41 2 -58 4 -37 2 20 2 54 0 75 -2 20 -4 3 -4 -38z"/>
<path d="M5093 6940 c0 -47 2 -66 4 -42 2 23 2 61 0 85 -2 23 -4 4 -4 -43z"/>
<path d="M4063 6945 c0 -38 2 -53 4 -32 2 20 2 52 0 70 -2 17 -4 1 -4 -38z"/>
<path d="M5913 6935 c0 -44 2 -61 4 -37 2 23 2 59 0 80 -2 20 -4 1 -4 -43z"/>
<path d="M4693 6920 c0 -25 2 -35 4 -22 2 12 2 32 0 45 -2 12 -4 2 -4 -23z"/>
<path d="M6724 6725 c0 -55 1 -76 3 -47 2 29 2 74 0 100 -2 26 -3 2 -3 -53z"/>
<path d="M7164 6725 c0 -55 1 -76 3 -47 2 29 2 74 0 100 -2 26 -3 2 -3 -53z"/>
<path d="M3193 6720 c0 -47 2 -66 4 -42 2 23 2 61 0 85 -2 23 -4 4 -4 -43z"/>
<path d="M3413 6730 c0 -41 2 -58 4 -37 2 20 2 54 0 75 -2 20 -4 3 -4 -38z"/>
<path d="M4063 6720 c0 -47 2 -66 4 -42 2 23 2 61 0 85 -2 23 -4 4 -4 -43z"/>
<path d="M3633 6715 c0 -33 2 -45 4 -27 2 18 2 45 0 60 -2 15 -4 0 -4 -33z"/>
<path d="M3043 6613 c26 -2 68 -2 95 0 26 2 4 3 -48 3 -52 0 -74 -1 -47 -3z"/>
<path d="M3258 6613 c29 -2 74 -2 100 0 26 2 2 3 -53 3 -55 0 -76 -1 -47 -3z"/>
<path d="M3478 6613 c29 -2 74 -2 100 0 26 2 2 3 -53 3 -55 0 -76 -1 -47 -3z"/>
<path d="M3723 6613 c26 -2 68 -2 95 0 26 2 4 3 -48 3 -52 0 -74 -1 -47 -3z"/>
<path d="M3913 6613 c26 -2 68 -2 95 0 26 2 4 3 -48 3 -52 0 -74 -1 -47 -3z"/>
<path d="M4118 6613 c23 -2 61 -2 85 0 23 2 4 4 -43 4 -47 0 -66 -2 -42 -4z"/>
<path d="M6478 6613 c83 -2 221 -2 305 0 83 1 15 3 -153 3 -168 0 -236 -2
-152 -3z"/>
<path d="M7013 6613 c26 -2 68 -2 95 0 26 2 4 3 -48 3 -52 0 -74 -1 -47 -3z"/>
<path d="M7223 6613 c26 -2 68 -2 95 0 26 2 4 3 -48 3 -52 0 -74 -1 -47 -3z"/>
<path d="M6724 6515 c0 -49 1 -71 3 -48 2 23 2 64 0 90 -2 26 -3 8 -3 -42z"/>
<path d="M4063 6535 c0 -33 2 -45 4 -27 2 18 2 45 0 60 -2 15 -4 0 -4 -33z"/>
<path d="M7163 6505 c0 -44 2 -61 4 -37 2 23 2 59 0 80 -2 20 -4 1 -4 -43z"/>
<path d="M3193 6515 c0 -33 2 -45 4 -27 2 18 2 45 0 60 -2 15 -4 0 -4 -33z"/>
<path d="M3413 6500 c0 -36 2 -50 4 -32 2 17 2 47 0 65 -2 17 -4 3 -4 -33z"/>
<path d="M3083 6413 c59 -2 155 -2 215 0 59 1 10 3 -108 3 -118 0 -167 -2
-107 -3z"/>
<path d="M3478 6413 c29 -2 74 -2 100 0 26 2 2 3 -53 3 -55 0 -76 -1 -47 -3z"/>
<path d="M3718 6413 c23 -2 61 -2 85 0 23 2 4 4 -43 4 -47 0 -66 -2 -42 -4z"/>
<path d="M3913 6413 c26 -2 68 -2 95 0 26 2 4 3 -48 3 -52 0 -74 -1 -47 -3z"/>
<path d="M4103 6413 c26 -2 68 -2 95 0 26 2 4 3 -48 3 -52 0 -74 -1 -47 -3z"/>
<path d="M6373 6413 c26 -2 67 -2 90 0 23 2 2 3 -48 3 -49 0 -68 -1 -42 -3z"/>
<path d="M6563 6413 c31 -2 83 -2 115 0 31 2 5 3 -58 3 -63 0 -89 -1 -57 -3z"/>
<path d="M6788 6413 c29 -2 74 -2 100 0 26 2 2 3 -53 3 -55 0 -76 -1 -47 -3z"/>
<path d="M3413 6320 c0 -47 2 -66 4 -42 2 23 2 61 0 85 -2 23 -4 4 -4 -43z"/>
<path d="M3633 6320 c0 -47 2 -66 4 -42 2 23 2 61 0 85 -2 23 -4 4 -4 -43z"/>
<path d="M6723 6340 c0 -36 2 -50 4 -32 2 17 2 47 0 65 -2 17 -4 3 -4 -33z"/>
<path d="M7163 6345 c0 -33 2 -45 4 -27 2 18 2 45 0 60 -2 15 -4 0 -4 -33z"/>
<path d="M3193 6300 c0 -36 2 -50 4 -32 2 17 2 47 0 65 -2 17 -4 3 -4 -33z"/>
<path d="M4063 6285 c0 -33 2 -45 4 -27 2 18 2 45 0 60 -2 15 -4 0 -4 -33z"/>
<path d="M3308 6203 c12 -2 30 -2 40 0 9 3 -1 5 -23 4 -22 0 -30 -2 -17 -4z"/>
<path d="M3483 6203 c9 -2 23 -2 30 0 6 3 -1 5 -18 5 -16 0 -22 -2 -12 -5z"/>
<path d="M4113 6203 c9 -2 25 -2 35 0 9 3 1 5 -18 5 -19 0 -27 -2 -17 -5z"/>
<path d="M3193 6085 c0 -44 2 -61 4 -37 2 23 2 59 0 80 -2 20 -4 1 -4 -43z"/>
<path d="M3413 6085 c0 -44 2 -61 4 -37 2 23 2 59 0 80 -2 20 -4 1 -4 -43z"/>
<path d="M4063 6045 c0 -22 2 -30 4 -17 2 12 2 30 0 40 -3 9 -5 -1 -4 -23z"/>
<path d="M3028 5993 c28 -2 76 -2 105 0 28 2 5 3 -53 3 -58 0 -81 -1 -52 -3z"/>
<path d="M3248 5993 c23 -2 59 -2 80 0 20 2 1 4 -43 4 -44 0 -61 -2 -37 -4z"/>
<path d="M3478 5993 c23 -2 61 -2 85 0 23 2 4 4 -43 4 -47 0 -66 -2 -42 -4z"/>
<path d="M3698 5993 c12 -2 32 -2 45 0 12 2 2 4 -23 4 -25 0 -35 -2 -22 -4z"/>
<path d="M3938 5993 c12 -2 30 -2 40 0 9 3 -1 5 -23 4 -22 0 -30 -2 -17 -4z"/>
<path d="M4088 5993 c7 -3 16 -2 19 1 4 3 -2 6 -13 5 -11 0 -14 -3 -6 -6z"/>
<path d="M4183 5993 c15 -2 37 -2 50 0 12 2 0 4 -28 4 -27 0 -38 -2 -22 -4z"/>
<path d="M3193 5910 c0 -41 2 -58 4 -37 2 20 2 54 0 75 -2 20 -4 3 -4 -38z"/>
<path d="M3414 5895 c0 -49 1 -71 3 -48 2 23 2 64 0 90 -2 26 -3 8 -3 -42z"/>
<path d="M4062 5945 c0 -16 2 -22 5 -12 2 9 2 23 0 30 -3 6 -5 -1 -5 -18z"/>
<path d="M4062 5865 c0 -16 2 -22 5 -12 2 9 2 23 0 30 -3 6 -5 -1 -5 -18z"/>
<path d="M3631 5854 c0 -11 3 -14 6 -6 3 7 2 16 -1 19 -3 4 -6 -2 -5 -13z"/>
<path d="M3194 5685 c0 -49 1 -71 3 -48 2 23 2 64 0 90 -2 26 -3 8 -3 -42z"/>
<path d="M3414 5685 c0 -49 1 -71 3 -48 2 23 2 64 0 90 -2 26 -3 8 -3 -42z"/>
<path d="M4063 5680 c0 -47 2 -66 4 -42 2 23 2 61 0 85 -2 23 -4 4 -4 -43z"/>
<path d="M3053 5583 c15 -2 37 -2 50 0 12 2 0 4 -28 4 -27 0 -38 -2 -22 -4z"/>
<path d="M3148 5583 c6 -2 18 -2 25 0 6 3 1 5 -13 5 -14 0 -19 -2 -12 -5z"/>
<path d="M3257 5583 c18 -2 50 -2 70 0 21 2 7 4 -32 4 -38 0 -55 -2 -38 -4z"/>
<path d="M3478 5583 c23 -2 61 -2 85 0 23 2 4 4 -43 4 -47 0 -66 -2 -42 -4z"/>
<path d="M3733 5583 c20 -2 54 -2 75 0 20 2 3 4 -38 4 -41 0 -58 -2 -37 -4z"/>
<path d="M3968 5583 c6 -2 18 -2 25 0 6 3 1 5 -13 5 -14 0 -19 -2 -12 -5z"/>
<path d="M4098 5583 c12 -2 30 -2 40 0 9 3 -1 5 -23 4 -22 0 -30 -2 -17 -4z"/>
<path d="M4178 5583 c12 -2 32 -2 45 0 12 2 2 4 -23 4 -25 0 -35 -2 -22 -4z"/>
<path d="M3413 5485 c0 -44 2 -61 4 -37 2 23 2 59 0 80 -2 20 -4 1 -4 -43z"/>
<path d="M3193 5485 c0 -27 2 -38 4 -22 2 15 2 37 0 50 -2 12 -4 0 -4 -28z"/>
<path d="M4063 5470 c0 -30 2 -43 4 -27 2 15 2 39 0 55 -2 15 -4 2 -4 -28z"/>
<path d="M3631 5494 c0 -11 3 -14 6 -6 3 7 2 16 -1 19 -3 4 -6 -2 -5 -13z"/>
<path d="M3023 5393 c9 -2 23 -2 30 0 6 3 -1 5 -18 5 -16 0 -22 -2 -12 -5z"/>
<path d="M3257 5393 c18 -2 50 -2 70 0 21 2 7 4 -32 4 -38 0 -55 -2 -38 -4z"/>
<path d="M3453 5393 c15 -2 37 -2 50 0 12 2 0 4 -28 4 -27 0 -38 -2 -22 -4z"/>
<path d="M3598 5393 c7 -3 16 -2 19 1 4 3 -2 6 -13 5 -11 0 -14 -3 -6 -6z"/>
<path d="M3738 5393 c6 -2 18 -2 25 0 6 3 1 5 -13 5 -14 0 -19 -2 -12 -5z"/>
<path d="M3808 5393 c6 -2 18 -2 25 0 6 3 1 5 -13 5 -14 0 -19 -2 -12 -5z"/>
<path d="M3893 5393 c9 -2 25 -2 35 0 9 3 1 5 -18 5 -19 0 -27 -2 -17 -5z"/>
<path d="M3983 5393 c9 -2 23 -2 30 0 6 3 -1 5 -18 5 -16 0 -22 -2 -12 -5z"/>
<path d="M3414 5295 c0 -49 1 -71 3 -48 2 23 2 64 0 90 -2 26 -3 8 -3 -42z"/>
<path d="M4063 5325 c0 -33 2 -45 4 -27 2 18 2 45 0 60 -2 15 -4 0 -4 -33z"/>
<path d="M3193 5315 c0 -33 2 -45 4 -27 2 18 2 45 0 60 -2 15 -4 0 -4 -33z"/>
<path d="M3191 5224 c0 -11 3 -14 6 -6 3 7 2 16 -1 19 -3 4 -6 -2 -5 -13z"/>
<path d="M3193 5065 c0 -33 2 -45 4 -27 2 18 2 45 0 60 -2 15 -4 0 -4 -33z"/>
<path d="M3413 5080 c0 -25 2 -35 4 -22 2 12 2 32 0 45 -2 12 -4 2 -4 -23z"/>
<path d="M4062 5065 c0 -16 2 -22 5 -12 2 9 2 23 0 30 -3 6 -5 -1 -5 -18z"/>
<path d="M3088 4993 c6 -2 18 -2 25 0 6 3 1 5 -13 5 -14 0 -19 -2 -12 -5z"/>
<path d="M3143 4993 c9 -2 23 -2 30 0 6 3 -1 5 -18 5 -16 0 -22 -2 -12 -5z"/>
<path d="M3333 4993 c15 -2 37 -2 50 0 12 2 0 4 -28 4 -27 0 -38 -2 -22 -4z"/>
<path d="M3453 4993 c15 -2 37 -2 50 0 12 2 0 4 -28 4 -27 0 -38 -2 -22 -4z"/>
<path d="M3553 4993 c9 -2 25 -2 35 0 9 3 1 5 -18 5 -19 0 -27 -2 -17 -5z"/>
<path d="M3678 4993 c17 -2 47 -2 65 0 17 2 3 4 -33 4 -36 0 -50 -2 -32 -4z"/>
<path d="M3803 4993 c9 -2 23 -2 30 0 6 3 -1 5 -18 5 -16 0 -22 -2 -12 -5z"/>
<path d="M3943 4993 c15 -2 39 -2 55 0 15 2 2 4 -28 4 -30 0 -43 -2 -27 -4z"/>
<path d="M4128 4993 c6 -2 18 -2 25 0 6 3 1 5 -13 5 -14 0 -19 -2 -12 -5z"/>
<path d="M4208 4993 c6 -2 18 -2 25 0 6 3 1 5 -13 5 -14 0 -19 -2 -12 -5z"/>
<path d="M3193 4930 c0 -30 2 -43 4 -27 2 15 2 39 0 55 -2 15 -4 2 -4 -28z"/>
<path d="M3414 4895 c0 -49 1 -71 3 -48 2 23 2 64 0 90 -2 26 -3 8 -3 -42z"/>
<path d="M4063 4930 c0 -30 2 -43 4 -27 2 15 2 39 0 55 -2 15 -4 2 -4 -28z"/>
<path d="M3631 4894 c0 -11 3 -14 6 -6 3 7 2 16 -1 19 -3 4 -6 -2 -5 -13z"/>
<path d="M4061 4754 c0 -11 3 -14 6 -6 3 7 2 16 -1 19 -3 4 -6 -2 -5 -13z"/>
<path d="M3193 4680 c0 -25 2 -35 4 -22 2 12 2 32 0 45 -2 12 -4 2 -4 -23z"/>
<path d="M3413 4680 c0 -25 2 -35 4 -22 2 12 2 32 0 45 -2 12 -4 2 -4 -23z"/>
<path d="M4063 4675 c0 -27 2 -38 4 -22 2 15 2 37 0 50 -2 12 -4 0 -4 -28z"/>
<path d="M3194 4485 c0 -49 1 -71 3 -48 2 23 2 64 0 90 -2 26 -3 8 -3 -42z"/>
<path d="M3632 4545 c0 -16 2 -22 5 -12 2 9 2 23 0 30 -3 6 -5 -1 -5 -18z"/>
<path d="M4064 4485 c0 -49 1 -71 3 -48 2 23 2 64 0 90 -2 26 -3 8 -3 -42z"/>
<path d="M3414 4475 c0 -49 1 -71 3 -48 2 23 2 64 0 90 -2 26 -3 8 -3 -42z"/>
<path d="M3633 4475 c0 -22 2 -30 4 -17 2 12 2 30 0 40 -3 9 -5 -1 -4 -23z"/>
<path d="M3631 4414 c0 -11 3 -14 6 -6 3 7 2 16 -1 19 -3 4 -6 -2 -5 -13z"/>
<path d="M3193 4270 c0 -30 2 -43 4 -27 2 15 2 39 0 55 -2 15 -4 2 -4 -28z"/>
<path d="M3413 4245 c0 -44 2 -61 4 -37 2 23 2 59 0 80 -2 20 -4 1 -4 -43z"/>
<path d="M4063 4285 c0 -22 2 -30 4 -17 2 12 2 30 0 40 -3 9 -5 -1 -4 -23z"/>
<path d="M6720 4225 l0 -64 -107 -4 -108 -3 107 -2 107 -2 4 -92 c2 -60 4 -35
5 70 1 89 0 162 -3 162 -3 0 -5 -29 -5 -65z"/>
<path d="M7162 4203 l-2 -42 -112 -4 c-62 -1 -14 -3 107 -3 121 0 174 2 118 3
l-102 4 -4 42 -4 42 -1 -42z"/>
<path d="M4061 4184 c0 -11 3 -14 6 -6 3 7 2 16 -1 19 -3 4 -6 -2 -5 -13z"/>
<path d="M3028 4153 c28 -2 76 -2 105 0 28 2 5 3 -53 3 -58 0 -81 -1 -52 -3z"/>
<path d="M3243 4153 c32 -2 81 -2 110 0 29 2 3 3 -58 3 -60 0 -84 -1 -52 -3z"/>
<path d="M3473 4153 c26 -2 67 -2 90 0 23 2 2 3 -48 3 -49 0 -68 -1 -42 -3z"/>
<path d="M3718 4153 c23 -2 61 -2 85 0 23 2 4 4 -43 4 -47 0 -66 -2 -42 -4z"/>
<path d="M3878 4153 c6 -2 18 -2 25 0 6 3 1 5 -13 5 -14 0 -19 -2 -12 -5z"/>
<path d="M3938 4153 c12 -2 32 -2 45 0 12 2 2 4 -23 4 -25 0 -35 -2 -22 -4z"/>
<path d="M4118 4153 c23 -2 61 -2 85 0 23 2 4 4 -43 4 -47 0 -66 -2 -42 -4z"/>
<path d="M6788 4153 c29 -2 74 -2 100 0 26 2 2 3 -53 3 -55 0 -76 -1 -47 -3z"/>
<path d="M7164 4055 c0 -49 1 -71 3 -48 2 23 2 64 0 90 -2 26 -3 8 -3 -42z"/>
<path d="M3852 4105 c0 -16 2 -22 5 -12 2 9 2 23 0 30 -3 6 -5 -1 -5 -18z"/>
<path d="M3413 4040 c0 -41 2 -58 4 -37 2 20 2 54 0 75 -2 20 -4 3 -4 -38z"/>
<path d="M4063 4055 c0 -33 2 -45 4 -27 2 18 2 45 0 60 -2 15 -4 0 -4 -33z"/>
<path d="M3193 4040 c0 -25 2 -35 4 -22 2 12 2 32 0 45 -2 12 -4 2 -4 -23z"/>
<path d="M3058 3953 c6 -2 18 -2 25 0 6 3 1 5 -13 5 -14 0 -19 -2 -12 -5z"/>
<path d="M3118 3953 c12 -2 32 -2 45 0 12 2 2 4 -23 4 -25 0 -35 -2 -22 -4z"/>
<path d="M3253 3953 c20 -2 54 -2 75 0 20 2 3 4 -38 4 -41 0 -58 -2 -37 -4z"/>
<path d="M3518 3953 c7 -3 16 -2 19 1 4 3 -2 6 -13 5 -11 0 -14 -3 -6 -6z"/>
<path d="M3568 3953 c6 -2 18 -2 25 0 6 3 1 5 -13 5 -14 0 -19 -2 -12 -5z"/>
<path d="M3828 3953 c6 -2 18 -2 25 0 6 3 1 5 -13 5 -14 0 -19 -2 -12 -5z"/>
<path d="M3928 3953 c17 -2 47 -2 65 0 17 2 3 4 -33 4 -36 0 -50 -2 -32 -4z"/>
<path d="M4123 3953 c9 -2 23 -2 30 0 6 3 -1 5 -18 5 -16 0 -22 -2 -12 -5z"/>
<path d="M6373 3953 c26 -2 67 -2 90 0 23 2 2 3 -48 3 -49 0 -68 -1 -42 -3z"/>
<path d="M6583 3953 c26 -2 67 -2 90 0 23 2 2 3 -48 3 -49 0 -68 -1 -42 -3z"/>
<path d="M6803 3953 c26 -2 67 -2 90 0 23 2 2 3 -48 3 -49 0 -68 -1 -42 -3z"/>
<path d="M7008 3953 c23 -2 59 -2 80 0 20 2 1 4 -43 4 -44 0 -61 -2 -37 -4z"/>
<path d="M7207 3953 c18 -2 50 -2 70 0 21 2 7 4 -32 4 -38 0 -55 -2 -38 -4z"/>
<path d="M7328 3953 c6 -2 18 -2 25 0 6 3 1 5 -13 5 -14 0 -19 -2 -12 -5z"/>
<path d="M6724 3835 c0 -60 1 -84 3 -52 2 32 2 81 0 110 -2 29 -3 3 -3 -58z"/>
<path d="M7164 3850 c0 -52 1 -74 3 -47 2 26 2 68 0 95 -2 26 -3 4 -3 -48z"/>
<path d="M3193 3840 c0 -47 2 -66 4 -42 2 23 2 61 0 85 -2 23 -4 4 -4 -43z"/>
<path d="M3413 3840 c0 -47 2 -66 4 -42 2 23 2 61 0 85 -2 23 -4 4 -4 -43z"/>
<path d="M4063 3840 c0 -47 2 -66 4 -42 2 23 2 61 0 85 -2 23 -4 4 -4 -43z"/>
<path d="M3633 3800 c0 -25 2 -35 4 -22 2 12 2 32 0 45 -2 12 -4 2 -4 -23z"/>
<path d="M3853 3800 c0 -25 2 -35 4 -22 2 12 2 32 0 45 -2 12 -4 2 -4 -23z"/>
<path d="M3193 3660 c0 -36 2 -50 4 -32 2 17 2 47 0 65 -2 17 -4 3 -4 -33z"/>
<path d="M6724 3635 c0 -49 1 -71 3 -48 2 23 2 64 0 90 -2 26 -3 8 -3 -42z"/>
<path d="M7163 3655 c0 -38 2 -53 4 -32 2 20 2 52 0 70 -2 17 -4 1 -4 -38z"/>
<path d="M3413 3635 c0 -27 2 -38 4 -22 2 15 2 37 0 50 -2 12 -4 0 -4 -28z"/>
<path d="M4063 3625 c0 -27 2 -38 4 -22 2 15 2 37 0 50 -2 12 -4 0 -4 -28z"/>
<path d="M3851 3614 c0 -11 3 -14 6 -6 3 7 2 16 -1 19 -3 4 -6 -2 -5 -13z"/>
<path d="M3488 3533 c28 -2 76 -2 105 0 28 2 5 3 -53 3 -58 0 -81 -1 -52 -3z"/>
<path d="M3698 3533 c29 -2 74 -2 100 0 26 2 2 3 -53 3 -55 0 -76 -1 -47 -3z"/>
<path d="M3948 3533 c56 -2 148 -2 205 0 56 1 10 3 -103 3 -113 0 -159 -2
-102 -3z"/>
<path d="M6773 3533 c26 -2 67 -2 90 0 23 2 2 3 -48 3 -49 0 -68 -1 -42 -3z"/>
<path d="M4063 3440 c0 -47 2 -66 4 -42 2 23 2 61 0 85 -2 23 -4 4 -4 -43z"/>
<path d="M6722 3433 l-2 -92 -87 -4 c-49 -1 -11 -3 82 -3 94 0 135 2 93 3
l-77 4 -4 92 -3 92 -2 -92z"/>
<path d="M4483 3430 c0 -47 2 -66 4 -42 2 23 2 61 0 85 -2 23 -4 4 -4 -43z"/>
<path d="M5913 3435 c0 -44 2 -61 4 -37 2 23 2 59 0 80 -2 20 -4 1 -4 -43z"/>
<path d="M4693 3425 c0 -38 2 -53 4 -32 2 20 2 52 0 70 -2 17 -4 1 -4 -38z"/>
<path d="M4903 3410 c0 -30 2 -43 4 -27 2 15 2 39 0 55 -2 15 -4 2 -4 -28z"/>
<path d="M5093 3405 c0 -27 2 -38 4 -22 2 15 2 37 0 50 -2 12 -4 0 -4 -28z"/>
<path d="M3631 3414 c0 -11 3 -14 6 -6 3 7 2 16 -1 19 -3 4 -6 -2 -5 -13z"/>
<path d="M3463 3333 c32 -2 81 -2 110 0 29 2 3 3 -58 3 -60 0 -84 -1 -52 -3z"/>
<path d="M3723 3333 c26 -2 68 -2 95 0 26 2 4 3 -48 3 -52 0 -74 -1 -47 -3z"/>
<path d="M3918 3333 c28 -2 76 -2 105 0 28 2 5 3 -53 3 -58 0 -81 -1 -52 -3z"/>
<path d="M4123 3333 c26 -2 67 -2 90 0 23 2 2 3 -48 3 -49 0 -68 -1 -42 -3z"/>
<path d="M4368 3333 c61 -2 163 -2 225 0 61 1 11 3 -113 3 -124 0 -174 -2
-112 -3z"/>
<path d="M4897 3333 c105 -2 281 -2 390 0 109 1 23 2 -192 2 -214 0 -304 -1
-198 -2z"/>
<path d="M5558 3333 c29 -2 74 -2 100 0 26 2 2 3 -53 3 -55 0 -76 -1 -47 -3z"/>
<path d="M5828 3333 c56 -2 148 -2 205 0 56 1 10 3 -103 3 -113 0 -159 -2
-102 -3z"/>
<path d="M6228 3333 c50 -2 134 -2 185 0 50 1 9 3 -93 3 -102 0 -143 -2 -92
-3z"/>
<path d="M6903 3333 c9 -2 23 -2 30 0 6 3 -1 5 -18 5 -16 0 -22 -2 -12 -5z"/>
<path d="M4484 3235 c0 -49 1 -71 3 -48 2 23 2 64 0 90 -2 26 -3 8 -3 -42z"/>
<path d="M4904 3235 c0 -49 1 -71 3 -48 2 23 2 64 0 90 -2 26 -3 8 -3 -42z"/>
<path d="M5914 3235 c0 -49 1 -71 3 -48 2 23 2 64 0 90 -2 26 -3 8 -3 -42z"/>
<path d="M6724 3225 c0 -55 1 -76 3 -47 2 29 2 74 0 100 -2 26 -3 2 -3 -53z"/>
<path d="M5093 3225 c0 -44 2 -61 4 -37 2 23 2 59 0 80 -2 20 -4 1 -4 -43z"/>
<path d="M3853 3240 c0 -30 2 -43 4 -27 2 15 2 39 0 55 -2 15 -4 2 -4 -28z"/>
<path d="M3633 3245 c0 -22 2 -30 4 -17 2 12 2 30 0 40 -3 9 -5 -1 -4 -23z"/>
<path d="M4693 3220 c0 -30 2 -43 4 -27 2 15 2 39 0 55 -2 15 -4 2 -4 -28z"/>
<path d="M4062 3230 c0 -19 2 -27 5 -17 2 9 2 25 0 35 -3 9 -5 1 -5 -18z"/>
<path d="M3851 3164 c0 -11 3 -14 6 -6 3 7 2 16 -1 19 -3 4 -6 -2 -5 -13z"/>
<path d="M3953 3133 c9 -2 25 -2 35 0 9 3 1 5 -18 5 -19 0 -27 -2 -17 -5z"/>
<path d="M5628 3133 c6 -2 18 -2 25 0 6 3 1 5 -13 5 -14 0 -19 -2 -12 -5z"/>
<path d="M6588 3133 c7 -3 16 -2 19 1 4 3 -2 6 -13 5 -11 0 -14 -3 -6 -6z"/>
<path d="M4063 3070 c0 -30 2 -43 4 -27 2 15 2 39 0 55 -2 15 -4 2 -4 -28z"/>
<path d="M4484 3015 c0 -60 1 -84 3 -52 2 32 2 81 0 110 -2 29 -3 3 -3 -58z"/>
<path d="M4904 3015 c0 -60 1 -84 3 -52 2 32 2 81 0 110 -2 29 -3 3 -3 -58z"/>
<path d="M5094 3015 c0 -60 1 -84 3 -52 2 32 2 81 0 110 -2 29 -3 3 -3 -58z"/>
<path d="M5914 3015 c0 -60 1 -84 3 -52 2 32 2 81 0 110 -2 29 -3 3 -3 -58z"/>
<path d="M4694 3025 c0 -49 1 -71 3 -48 2 23 2 64 0 90 -2 26 -3 8 -3 -42z"/>
<path d="M3853 3005 c0 -27 2 -38 4 -22 2 15 2 37 0 50 -2 12 -4 0 -4 -28z"/>
<path d="M4062 2985 c0 -16 2 -22 5 -12 2 9 2 23 0 30 -3 6 -5 -1 -5 -18z"/>
<path d="M3698 2893 c29 -2 74 -2 100 0 26 2 2 3 -53 3 -55 0 -76 -1 -47 -3z"/>
<path d="M3963 2893 c53 -2 141 -2 195 0 53 1 9 3 -98 3 -107 0 -151 -2 -97
-3z"/>
<path d="M4313 2893 c32 -2 81 -2 110 0 29 2 3 3 -58 3 -60 0 -84 -1 -52 -3z"/>
<path d="M4538 2893 c23 -2 61 -2 85 0 23 2 4 4 -43 4 -47 0 -66 -2 -42 -4z"/>
<path d="M4753 2893 c26 -2 67 -2 90 0 23 2 2 3 -48 3 -49 0 -68 -1 -42 -3z"/>
<path d="M4978 2893 c17 -2 47 -2 65 0 17 2 3 4 -33 4 -36 0 -50 -2 -32 -4z"/>
<path d="M5148 2893 c23 -2 61 -2 85 0 23 2 4 4 -43 4 -47 0 -66 -2 -42 -4z"/>
<path d="M5348 2893 c23 -2 59 -2 80 0 20 2 1 4 -43 4 -44 0 -61 -2 -37 -4z"/>
<path d="M5568 2893 c23 -2 61 -2 85 0 23 2 4 4 -43 4 -47 0 -66 -2 -42 -4z"/>
<path d="M5788 2893 c23 -2 59 -2 80 0 20 2 1 4 -43 4 -44 0 -61 -2 -37 -4z"/>
<path d="M5973 2893 c26 -2 67 -2 90 0 23 2 2 3 -48 3 -49 0 -68 -1 -42 -3z"/>
<path d="M6243 2893 c15 -2 39 -2 55 0 15 2 2 4 -28 4 -30 0 -43 -2 -27 -4z"/>
<path d="M6373 2893 c26 -2 67 -2 90 0 23 2 2 3 -48 3 -49 0 -68 -1 -42 -3z"/>
<path d="M6567 2893 c18 -2 50 -2 70 0 21 2 7 4 -32 4 -38 0 -55 -2 -38 -4z"/>
<path d="M4063 2840 c0 -25 2 -35 4 -22 2 12 2 32 0 45 -2 12 -4 2 -4 -23z"/>
<path d="M4483 2805 c0 -44 2 -61 4 -37 2 23 2 59 0 80 -2 20 -4 1 -4 -43z"/>
<path d="M4903 2805 c0 -44 2 -61 4 -37 2 23 2 59 0 80 -2 20 -4 1 -4 -43z"/>
<path d="M5093 2805 c0 -44 2 -61 4 -37 2 23 2 59 0 80 -2 20 -4 1 -4 -43z"/>
<path d="M5913 2805 c0 -44 2 -61 4 -37 2 23 2 59 0 80 -2 20 -4 1 -4 -43z"/>
<path d="M4693 2800 c0 -41 2 -58 4 -37 2 20 2 54 0 75 -2 20 -4 3 -4 -38z"/>
<path d="M3851 2814 c0 -11 3 -14 6 -6 3 7 2 16 -1 19 -3 4 -6 -2 -5 -13z"/>
<path d="M7483 7443 c-17 -6 -17 -68 0 -81 22 -18 39 2 35 43 -3 38 -12 48
-35 38z"/>
<path d="M2350 7425 c-13 -33 4 -74 31 -75 12 0 27 48 22 73 -7 35 -40 36 -53
2z"/>
<path d="M2992 7438 c-26 -26 -8 -96 23 -85 12 5 15 17 13 49 -3 44 -16 56
-36 36z"/>
<path d="M7897 7024 c-9 -9 -9 -78 -1 -87 4 -3 15 -2 26 4 15 8 18 19 16 47
-3 35 -24 53 -41 36z"/>
<path d="M4599 6581 c-1 -6 -2 -17 -3 -23 -4 -23 14 -47 30 -41 22 8 15 67 -8
71 -10 2 -19 -1 -19 -7z"/>
<path d="M4762 6128 c2 -35 7 -43 23 -43 22 0 30 24 21 61 -4 15 -14 24 -27
24 -18 0 -20 -5 -17 -42z"/>
<path d="M7694 6167 c-11 -30 0 -82 19 -85 16 -3 18 3 15 44 -3 47 -22 70 -34
41z"/>
<path d="M4576 5954 c-11 -29 4 -84 24 -84 22 0 30 20 24 57 -8 40 -37 57 -48
27z"/>
<path d="M6004 5926 c-7 -41 0 -56 26 -56 22 0 34 31 26 66 -10 38 -44 32 -52
-10z"/>
<path d="M5807 5899 c-21 -12 -13 -29 14 -29 12 0 19 7 19 20 0 22 -7 24 -33
9z"/>
<path d="M7277 5934 c-4 -4 -7 -20 -7 -36 0 -25 4 -29 23 -26 17 2 22 10 22
33 0 29 -22 45 -38 29z"/>
<path d="M6435 5738 c-13 -43 -11 -69 5 -78 24 -13 30 -4 30 47 0 32 -4 43
-15 43 -9 0 -17 -6 -20 -12z"/>
<path d="M4582 5528 c-22 -22 -12 -88 13 -88 26 0 35 69 12 89 -10 8 -17 7
-25 -1z"/>
<path d="M6650 5505 c0 -8 9 -15 20 -15 13 0 18 5 14 15 -4 8 -12 15 -20 15
-8 0 -14 -7 -14 -15z"/>
<path d="M6650 5465 c0 -8 9 -15 20 -15 11 0 20 7 20 15 0 8 -9 15 -20 15 -11
0 -20 -7 -20 -15z"/>
<path d="M4766 5323 c-8 -26 8 -78 25 -78 10 0 15 14 17 48 3 41 1 47 -17 47
-11 0 -22 -8 -25 -17z"/>
<path d="M2357 5334 c-15 -15 -7 -82 10 -88 22 -9 34 12 31 54 -3 33 -24 51
-41 34z"/>
<path d="M4987 5333 c-10 -10 -8 -81 2 -87 20 -13 41 7 41 38 0 41 -24 68 -43
49z"/>
<path d="M7060 5295 c0 -44 17 -64 39 -42 15 15 14 64 -1 74 -30 18 -38 11
-38 -32z"/>
<path d="M2777 5103 c-10 -10 -8 -73 2 -73 36 0 50 26 35 64 -6 16 -26 21 -37
9z"/>
<path d="M5187 5103 c-4 -7 -4 -19 2 -70 0 -6 9 -10 19 -9 24 4 25 79 0 84 -9
2 -18 -1 -21 -5z"/>
<path d="M7088 5070 c-2 -28 0 -40 9 -40 8 0 13 14 13 40 0 22 -4 40 -9 40 -5
0 -11 -18 -13 -40z"/>
<path d="M6836 4887 c-7 -35 0 -67 14 -67 32 0 40 92 9 98 -12 2 -18 -7 -23
-31z"/>
<path d="M4986 4912 c-3 -3 -6 -22 -6 -43 0 -25 5 -39 17 -43 21 -8 33 10 33
50 0 23 -5 33 -19 37 -11 3 -22 2 -25 -1z"/>
<path d="M7482 4903 c-11 -21 -6 -63 9 -78 13 -13 42 23 34 43 -3 8 -5 22 -5
33 0 24 -26 25 -38 2z"/>
<path d="M6023 4703 c-15 -5 -18 -79 -4 -87 22 -14 41 7 41 44 0 37 -12 51
-37 43z"/>
<path d="M6837 4703 c-13 -12 -7 -70 7 -82 27 -23 50 51 24 77 -14 14 -22 15
-31 5z"/>
<path d="M2348 4665 c-8 -19 -8 -28 2 -40 28 -34 58 -8 46 40 -8 32 -33 32
-48 0z"/>
<path d="M7897 4493 c-8 -8 -9 -77 -1 -85 10 -11 42 4 47 22 8 32 -4 70 -22
70 -10 0 -21 -3 -24 -7z"/>
<path d="M4780 4085 c-6 -8 -10 -29 -8 -47 2 -25 8 -33 23 -33 16 0 21 8 23
41 3 45 -17 65 -38 39z"/>
<path d="M4982 3838 c2 -25 8 -33 23 -33 13 0 20 6 19 18 -1 9 -2 24 -3 32 0
8 -10 15 -22 15 -17 0 -20 -5 -17 -32z"/>
<path d="M5807 3864 c-11 -11 -8 -62 3 -69 11 -7 18 7 22 44 3 24 -12 38 -25
25z"/>
<path d="M6017 3864 c-10 -10 -9 -62 1 -68 16 -10 31 10 29 39 -2 28 -17 42
-30 29z"/>
<path d="M2357 3676 c-21 -22 -8 -81 18 -81 16 0 21 8 23 36 4 44 -18 68 -41
45z"/>
<path d="M5804 3666 c-10 -26 0 -71 16 -71 10 0 16 13 18 43 2 33 0 42 -13 42
-8 0 -18 -6 -21 -14z"/>
<path d="M7060 2995 c0 -49 20 -62 40 -26 13 25 -3 71 -25 71 -11 0 -15 -11
-15 -45z"/>
<path d="M7908 3043 c-13 -3 -18 -15 -18 -43 0 -43 10 -54 40 -45 39 12 17 97
-22 88z"/>
<path d="M3186 2803 c-10 -37 -2 -68 19 -68 37 0 31 84 -7 85 -4 0 -9 -8 -12
-17z"/>
<path d="M2984 2596 c-3 -8 -4 -29 -2 -48 2 -25 8 -33 22 -33 22 0 38 41 29
75 -6 23 -41 27 -49 6z"/>
<path d="M7061 2588 c-5 -13 -7 -30 -5 -38 1 -8 3 -21 3 -28 2 -24 46 -9 49
17 9 59 -29 98 -47 49z"/>
<path d="M7480 2595 c-6 -7 -10 -29 -8 -47 3 -25 10 -34 26 -36 20 -3 22 1 22
41 0 48 -19 67 -40 42z"/>
<path d="M3196 2373 c-8 -8 -8 -56 0 -77 3 -9 15 -16 26 -16 10 0 17 4 13 9
-3 5 -1 12 3 15 14 9 1 56 -18 66 -10 5 -20 6 -24 3z"/>
<path d="M3758 2373 c-3 -4 -6 -27 -7 -51 -2 -41 -1 -43 21 -40 20 3 23 8 23
48 0 34 -4 46 -17 48 -9 2 -18 -1 -20 -5z"/>
<path d="M4582 2368 c-17 -17 -15 -64 4 -82 20 -20 30 -20 38 0 15 38 0 94
-24 94 -3 0 -11 -5 -18 -12z"/>
<path d="M6632 2348 c-9 -37 -4 -78 9 -78 5 0 9 5 9 10 0 6 6 9 13 8 16 -4 22
59 6 78 -18 22 -28 17 -37 -18z"/>
<path d="M7262 2368 c-20 -20 -14 -65 10 -82 19 -14 23 -14 34 2 14 18 18 51
8 76 -7 19 -35 21 -52 4z"/>
</g>
</svg>
